<?xml version="1.0" encoding="UTF-8" standalone="no"?>
<svg
   xmlns:dc="http://purl.org/dc/elements/1.1/"
   xmlns:cc="http://creativecommons.org/ns#"
   xmlns:rdf="http://www.w3.org/1999/02/22-rdf-syntax-ns#"
   xmlns:svg="http://www.w3.org/2000/svg"
   xmlns="http://www.w3.org/2000/svg"
   xmlns:sodipodi="http://sodipodi.sourceforge.net/DTD/sodipodi-0.dtd"
   xmlns:inkscape="http://www.inkscape.org/namespaces/inkscape"
   viewBox="0 0 453.54468 185.06456"
   height="185.06456"
   width="453.54468"
   xml:space="preserve"
   id="svg2"
   version="1.1"
   inkscape:version="0.91 r13725"
   sodipodi:docname="KI_Logo.svg"><sodipodi:namedview
     pagecolor="#ffffff"
     bordercolor="#666666"
     borderopacity="1"
     objecttolerance="10"
     gridtolerance="10"
     guidetolerance="10"
     inkscape:pageopacity="0"
     inkscape:pageshadow="2"
     inkscape:window-width="1680"
     inkscape:window-height="994"
     id="namedview76"
     showgrid="false"
     fit-margin-top="0"
     fit-margin-left="0"
     fit-margin-right="0"
     fit-margin-bottom="0"
     inkscape:zoom="0.66880616"
     inkscape:cx="73.300671"
     inkscape:cy="91.674587"
     inkscape:window-x="0"
     inkscape:window-y="0"
     inkscape:window-maximized="1"
     inkscape:current-layer="svg2" /><metadata
     id="metadata8"><rdf:RDF><cc:Work
         rdf:about=""><dc:format>image/svg+xml</dc:format><dc:type
           rdf:resource="http://purl.org/dc/dcmitype/StillImage" /><dc:title></dc:title></cc:Work></rdf:RDF></metadata><defs
     id="defs6" /><g
     transform="matrix(1.3333333,0,0,-1.3333333,-44.072649,229.45664)"
     id="g10"><g
       transform="scale(0.1,0.1)"
       id="g12"><path
         id="path14"
         style="fill:#9a0150;fill-opacity:1;fill-rule:nonzero;stroke:none"
         d="m 2050.69,1061.62 -67.93,163.2 -0.9,0 0,-163.2 -63.21,0 0,319.88 63.21,0 0,-148.8 0.9,0 69.31,148.8 62.74,0 -73.89,-148.33 80.88,-171.55 -71.11,0"
         inkscape:connector-curvature="0" /><path
         id="path16"
         style="fill:#9a0150;fill-opacity:1;fill-rule:nonzero;stroke:none"
         d="m 2227.35,1056.98 c -60,0 -90.24,28.82 -90.24,78.56 0,64.18 47.46,84.15 114.4,93.01 l 0,8.37 c 0,23.68 -13.93,34.81 -35.8,34.81 -20.96,0 -39.51,-5.99 -53.01,-13 l -12.58,39.53 c 14.43,7.91 39.55,18.6 77.23,18.6 46.93,0 82.26,-23.23 82.26,-92.04 l 0,-149.26 c -18.12,-11.6 -43.22,-18.58 -82.26,-18.58 z m 24.16,135.26 c -38.6,-5.09 -57.66,-18.1 -57.66,-54.37 0,-25.59 12.56,-39.98 36.27,-39.98 8.36,0 16.72,2.34 21.39,4.16 l 0,90.19"
         inkscape:connector-curvature="0" /><path
         id="path18"
         style="fill:#9a0150;fill-opacity:1;fill-rule:nonzero;stroke:none"
         d="m 2463.46,1267.12 c -13.89,6.95 -29.76,6.49 -41.31,0.93 l 0,-206.43 -60.04,0 0,236.64 c 22.8,13.49 54.87,20.94 112.52,18.16 l -11.17,-49.3"
         inkscape:connector-curvature="0" /><path
         id="path20"
         style="fill:#9a0150;fill-opacity:1;fill-rule:nonzero;stroke:none"
         d="m 2581.57,1056.98 c -61.45,0 -91.64,55.78 -91.64,130.17 0,74.37 30.19,129.71 91.64,129.71 61.79,0 91.56,-55.34 91.56,-129.71 0,-74.39 -29.77,-130.17 -91.56,-130.17 z m 0,215.23 c -26.51,0 -31.14,-38.11 -31.14,-83.66 0,-45.57 5.12,-82.75 31.14,-82.75 26.97,0 31.66,37.18 31.66,82.27 0,45.56 -4.69,84.14 -31.66,84.14"
         inkscape:connector-curvature="0" /><path
         id="path22"
         style="fill:#9a0150;fill-opacity:1;fill-rule:nonzero;stroke:none"
         d="m 2720.61,1061.62 0,347.09 60.84,17.86 0,-364.95 -60.84,0"
         inkscape:connector-curvature="0" /><path
         id="path24"
         style="fill:#9a0150;fill-opacity:1;fill-rule:nonzero;stroke:none"
         d="m 2866.02,1353.1 c -17.58,0 -32.07,14.87 -32.07,32.57 0,18.12 14.49,32.52 32.07,32.52 18.16,0 33.07,-14.4 33.07,-32.52 0,-17.7 -14.91,-32.57 -33.07,-32.57 z m -29.73,-291.48 0,250.57 60.43,0 0,-250.57 -60.43,0"
         inkscape:connector-curvature="0" /><path
         id="path26"
         style="fill:#9a0150;fill-opacity:1;fill-rule:nonzero;stroke:none"
         d="m 3066.02,1061.62 0,177.15 c 0,21.83 -8.87,33.91 -30.25,33.91 -12.56,0 -18.66,-1.39 -25.06,-4.63 l 0,-206.43 -60.02,0 0,236.64 c 19.92,11.16 48.3,18.6 86.52,18.6 61.31,0 89.63,-25.09 89.63,-78.09 l 0,-177.15 -60.82,0"
         inkscape:connector-curvature="0" /><path
         id="path28"
         style="fill:#9a0150;fill-opacity:1;fill-rule:nonzero;stroke:none"
         d="m 3229.14,1056.98 c -28.37,0 -47.91,6.03 -62.26,18.58 l 14.82,44.2 c 7.01,-6.52 21.84,-13.96 38.17,-13.96 15.74,0 26.05,9.3 26.05,23.24 0,18.15 -7.97,25.55 -30.23,42.31 -23.69,17.66 -44.61,39.53 -44.61,72.52 0,42.77 28.3,72.99 70.15,72.99 26.98,0 46.94,-6.96 61.39,-18.6 l -14.45,-38.6 c -6.04,5.61 -17.62,12.07 -33.03,12.07 -14.8,0 -24.16,-11.13 -24.16,-23.68 0,-16.29 11.7,-26.04 33.91,-42.31 26.07,-19.49 44.65,-37.66 44.65,-74.35 0,-42.82 -33.87,-74.41 -80.4,-74.41"
         inkscape:connector-curvature="0" /><path
         id="path30"
         style="fill:#9a0150;fill-opacity:1;fill-rule:nonzero;stroke:none"
         d="m 3476.47,1061.62 -63.67,131.09 -0.96,0 0,-131.09 -59.96,0 0,347.09 59.96,17.86 0,-229.16 0.96,0 64.12,114.78 59.57,0 -69.77,-114.78 74.83,-135.79 -65.08,0"
         inkscape:connector-curvature="0" /><path
         id="path32"
         style="fill:#9a0150;fill-opacity:1;fill-rule:nonzero;stroke:none"
         d="m 3649.89,1056.98 c -59.96,0 -90.22,28.82 -90.22,78.56 0,64.18 47.44,84.15 114.44,93.01 l 0,8.37 c 0,23.68 -14.05,34.81 -35.9,34.81 -20.88,0 -39.46,-5.99 -52.97,-13 l -12.54,39.53 c 14.43,7.91 39.49,18.6 77.19,18.6 46.97,0 82.24,-23.23 82.24,-92.04 l 0,-149.26 c -18.12,-11.6 -43.26,-18.58 -82.24,-18.58 z m 24.22,135.26 c -38.7,-5.09 -57.66,-18.1 -57.66,-54.37 0,-25.59 12.5,-39.98 36.19,-39.98 8.38,0 16.82,2.34 21.47,4.16 l 0,90.19"
         inkscape:connector-curvature="0" /><path
         id="path34"
         style="fill:#9a0150;fill-opacity:1;fill-rule:nonzero;stroke:none"
         d="m 1918.65,668.484 63.6328,0 0,319.918 -63.6328,0 z"
         inkscape:connector-curvature="0" /><path
         id="path36"
         style="fill:#9a0150;fill-opacity:1;fill-rule:nonzero;stroke:none"
         d="m 2153.4,668.484 0,177.184 c 0,21.894 -8.83,33.965 -30.19,33.965 -12.54,0 -18.62,-1.426 -25.14,-4.723 l 0,-206.426 -59.95,0 0,236.715 c 19.97,11.125 48.33,18.574 86.45,18.574 61.37,0 89.75,-25.113 89.75,-78.105 l 0,-177.184 -60.92,0"
         inkscape:connector-curvature="0" /><path
         id="path38"
         style="fill:#9a0150;fill-opacity:1;fill-rule:nonzero;stroke:none"
         d="m 2316.62,663.855 c -28.41,0 -47.92,6.071 -62.32,18.649 l 14.84,44.199 c 6.98,-6.582 21.88,-14.004 38.13,-14.004 15.82,0 26.05,9.281 26.05,23.285 0,18.125 -7.91,25.524 -30.25,42.34 -23.65,17.539 -44.59,39.434 -44.59,72.442 0,42.832 28.32,73.007 70.18,73.007 26.97,0 46.97,-6.98 61.38,-18.574 l -14.41,-38.554 c -6.04,5.507 -17.68,12.031 -33.01,12.031 -14.9,0 -24.14,-11.114 -24.14,-23.731 0,-16.269 11.56,-26.035 33.87,-42.265 26.05,-19.551 44.7,-37.692 44.7,-74.375 0,-42.813 -33.96,-74.45 -80.43,-74.45"
         inkscape:connector-curvature="0" /><path
         id="path40"
         style="fill:#9a0150;fill-opacity:1;fill-rule:nonzero;stroke:none"
         d="m 2514.18,665.281 c -40.95,0 -63.24,27.887 -63.24,72.067 l 0,136.621 -22.3,0 0,45.156 22.3,0 0,54.406 60.45,19.024 0,-73.43 32.99,0 0,-45.156 -32.99,0 0,-130.176 c 0,-23.219 7.83,-31.094 20.45,-31.094 5.59,0 9.24,1.41 12.54,2.344 l 0,-43.18 c -3.73,-2.871 -16.25,-6.582 -30.2,-6.582"
         inkscape:connector-curvature="0" /><path
         id="path42"
         style="fill:#9a0150;fill-opacity:1;fill-rule:nonzero;stroke:none"
         d="m 2615.47,960.055 c -17.65,0 -32.01,14.855 -32.01,32.5 0,18.175 14.36,32.565 32.01,32.565 18.23,0 33.03,-14.39 33.03,-32.565 0,-17.645 -14.8,-32.5 -33.03,-32.5 z m -29.72,-291.571 0,250.641 60.43,0 0,-250.641 -60.43,0"
         inkscape:connector-curvature="0" /><path
         id="path44"
         style="fill:#9a0150;fill-opacity:1;fill-rule:nonzero;stroke:none"
         d="m 2775.39,665.281 c -40.91,0 -63.2,27.887 -63.2,72.067 l 0,136.621 -22.28,0 0,45.156 22.28,0 0,54.406 60.45,19.024 0,-73.43 32.97,0 0,-45.156 -32.97,0 0,-130.176 c 0,-23.219 7.91,-31.094 20.49,-31.094 5.55,0 9.24,1.41 12.48,2.344 l 0,-43.18 c -3.71,-2.871 -16.27,-6.582 -30.22,-6.582"
         inkscape:connector-curvature="0" /><path
         id="path46"
         style="fill:#9a0150;fill-opacity:1;fill-rule:nonzero;stroke:none"
         d="m 2933.99,663.855 c -55.82,0 -87.85,24.157 -87.85,86.95 l 0,168.32 60.39,0 0,-175.332 c 0,-19.938 9.76,-32.477 29.33,-32.477 9.22,0 17.62,2.321 24.12,6.012 l 0,201.797 60.88,0 0,-235.703 c -18.06,-11.559 -47.44,-19.567 -86.87,-19.567"
         inkscape:connector-curvature="0" /><path
         id="path48"
         style="fill:#9a0150;fill-opacity:1;fill-rule:nonzero;stroke:none"
         d="m 3148.71,665.281 c -40.89,0 -63.22,27.887 -63.22,72.067 l 0,136.621 -22.26,0 0,45.156 22.26,0 0,54.406 60.43,19.024 0,-73.43 32.99,0 0,-45.156 -32.99,0 0,-130.176 c 0,-23.219 7.93,-31.094 20.49,-31.094 5.59,0 9.3,1.41 12.5,2.344 l 0,-43.18 c -3.63,-2.871 -16.19,-6.582 -30.2,-6.582"
         inkscape:connector-curvature="0" /><path
         id="path50"
         style="fill:#9a0150;fill-opacity:1;fill-rule:nonzero;stroke:none"
         d="m 3269.11,766.137 c 3.77,-36.27 19.49,-54.395 49.23,-54.395 25.57,0 42.82,6.996 52.58,13.086 l 13.52,-42.324 c -15.84,-11.188 -40.53,-18.649 -74.03,-18.649 -65.91,0 -101.29,48.844 -101.29,130.641 0,75.332 34.44,129.277 93.93,129.277 63.22,0 93.91,-53.945 89.26,-142.246 z m 32.59,113.945 c -22.38,0 -36.81,-30.723 -36.36,-74.844 l 67.93,8.379 c 0,42.246 -9.32,66.465 -31.57,66.465"
         inkscape:connector-curvature="0" /><path
         id="path52"
         style="fill:#9a0150;fill-opacity:1;fill-rule:nonzero;stroke:none"
         d="m 3510.38,665.281 c -40.94,0 -63.23,27.887 -63.23,72.067 l 0,136.621 -22.3,0 0,45.156 22.3,0 0,54.406 60.45,19.024 0,-73.43 33.01,0 0,-45.156 -33.01,0 0,-130.176 c 0,-23.219 7.87,-31.094 20.41,-31.094 5.65,0 9.3,1.41 12.6,2.344 l 0,-43.18 c -3.73,-2.871 -16.35,-6.582 -30.23,-6.582"
         inkscape:connector-curvature="0" /><path
         id="path54"
         style="fill:#9a0150;fill-opacity:1;fill-rule:evenodd;stroke:none"
         d="m 866.992,1128.34 c -4.074,11.27 -176.074,8.88 -238.25,8.46 -19.887,0 -65.433,-1.57 -65.433,-1.57 0,0 13.136,54.79 94.914,39.62 32.812,-6.14 52.636,-26.9 93.281,-22.1 -0.527,2.51 -0.332,2.34 -1.231,3.7 -2.5,4.72 -13.359,2.92 -13.496,9.78 9.805,4.05 46.953,-14.24 51.543,-13.48 -22.949,8.99 -16.785,9.82 -17.218,9.82 0,0.4 11.867,6.59 18.41,-3.66 -5.293,14.96 -20.145,3.24 -33.125,6.09 -5.313,1.2 -10.86,3.4 -17.188,3.7 6.582,6.17 13.348,1.16 17.246,0.31 0.821,1.55 1.27,1.03 2.403,2.14 -3.45,15.38 -42.676,25.08 -62.578,18.42 -6.114,-2.05 -32.684,9.46 -41.758,12.29 -35.137,10.87 -84.504,9.49 -110.422,-8.62 -32.02,-22.33 -49.93,-75.29 -20.887,-115.33 16.953,-23.36 47.414,-31.02 84.707,-34.39 -4.336,-4.27 -5.031,-8.68 -2.461,-18.38 4.942,-18.79 11.903,-33.015 30.676,-47.87 5.41,-4.305 17.34,-7.645 20.887,-13.524 2.98,-4.961 4.031,-10.859 6.121,-15.93 6.543,-0.371 13.078,-0.8 19.64,-1.238 0.059,-1.699 -0.527,-16.445 -0.527,-16.445 0,0 -17.293,-5.586 -23.391,-17.317 -2.769,-5.273 -15.73,-32.734 23.411,-47.636 -3.614,-13.887 -16.965,-24.903 -30.207,-29.043 -8.719,-2.715 -15.973,-2.5 -21.707,-7.696 -4.266,-4.043 -4.774,-15.859 -4.774,-16.699 53.582,0 106.188,-0.117 159.746,-0.117 1.531,10.039 -1.515,17.305 -12.855,20.449 -15.75,5.801 -14.696,2.793 -28.008,14.824 16.172,18.204 0.039,34.747 -15.066,37.657 0,5.781 0,21.738 0,21.738 0,0 12.343,6.133 17.148,8.391 17.977,8.32 27.734,17.136 33.703,24.57 9.207,11.66 9.656,31.367 5.078,42.695 38.887,44.631 17.84,57.021 18.844,61.351 4.805,20.43 13.547,52.52 39.473,59.65 9.015,2.5 27.668,2.54 28.468,2.54 -3.058,8.65 -1.621,18.52 -5.117,22.85 z m -223.047,0.87 0,-15.95 -11.925,0 c -0.399,5.35 -0.79,10.65 -1.172,15.95 z m -23.019,-1.22 c 0.832,-4.04 1.301,-9.09 1.222,-14.73 l -11.699,0 c 1.328,3.83 -0.488,10 -0.605,15.59 2.508,-0.47 10.293,-0.86 11.082,-0.86 z m -31.434,0.86 c 2.899,-0.4 9.141,0.81 11.981,0.36 0.82,-5.3 0.57,-11.67 1.406,-17.03 -3.59,-0.04 -9.981,-1.91 -11.883,-0.63 0,4.04 -1.738,11.01 -1.504,17.3 z m -18.32,-1.84 c 2.879,-0.43 6.523,0.63 9.367,0.2 0.809,-5.27 0.555,-9.79 1.383,-15.12 -3.563,-0.04 -7.363,-0.28 -9.277,1.02 0,4.09 -1.696,7.64 -1.473,13.9 z m 15.137,-24.81 c 2.441,-2.85 4.941,-5.68 7.41,-8.54 l 0,-1.24 c -8.875,1.9 -18.407,4.9 -24.59,9.78 z m -55.215,16 c -1.496,23.25 5.957,44.89 21.492,57.62 30.637,25.13 58.695,31.63 138.039,10.3 11.805,-3.19 20.02,2.05 30.996,0.04 4.277,-0.79 9.16,-1.03 12.871,-3.94 -0.312,-1.83 -0.312,-3.64 -0.312,-3.64 0,0 -12.168,4.59 -16.524,1.42 -0.828,0 -3.621,-3.63 2.41,-7.35 8.684,5.07 14.016,1.47 15.969,0.78 -9.453,-5.93 -1.25,-13.11 -1.25,-13.5 -29.347,0.58 -44.578,11.2 -65.019,19.59 -23.641,9.77 -63.547,8.97 -87.141,-1.22 -46.102,-19.81 -49.598,-92.31 15.012,-95.33 1.953,-7.11 4.816,-17.54 7.793,-26.4 -63.282,2.72 -74.2,59.33 -74.336,61.63 z M 650.047,980.535 c -0.027,0.067 -0.086,0.125 -0.145,0.203 -1.964,1.59 -15.929,11.446 -26.437,31.352 -4.215,9.18 -7.633,15.09 -4.059,18.89 12.762,10.25 20.586,-34.121 30.496,-50.242 0.223,-0.136 0.282,-0.203 0.145,-0.203 z m -2.02,33.605 c -2.257,11.56 -0.929,22.93 8.692,22.46 15.957,0.98 19.922,-39.311 25.547,-61.33 2.324,-0.793 -10.223,-0.247 -10.223,-0.247 0,0 -17.422,5.512 -24.016,39.117 z m 31.161,6.11 c 0,16.91 13.789,23.54 19.437,19.99 9.707,-6.68 2.207,-63.791 0.34,-66.31 -2.754,-0.047 -7.52,0.355 -7.52,0.355 0,0 -14.152,34.015 -12.257,45.965 z m -4.454,-64.707 c -0.175,0.516 -3.035,9.023 -3.199,11.023 26.914,-1.824 52.555,-1.707 81.149,0 -0.704,-2.281 -5.282,-10.781 -6.571,-11.023 -14.824,-2.793 -70.957,-1.309 -71.379,0 z m 48.969,18.742 -13.312,0 c 1.027,26.315 -1.887,42.825 5.632,54.175 3.321,6.28 15.149,16.02 22.493,6.61 3.261,-12.68 -6.805,-42.468 -14.813,-60.785 z m 41.609,63.215 c 11.708,-2.55 6.438,-46.391 -20.851,-63.102 -1.629,0 -8.563,-0.468 -10.223,-0.468 7.5,19.922 11.446,66.31 31.074,63.57 z m -30.703,-89.32 c 0,0 -18.074,-11.242 -39.91,-15.344 0,4.492 0.34,15 0.34,15 z m 4.512,-106.692 c 7.461,-13.066 39.707,-15.312 33.172,-20.293 -43.328,0 -124.293,0 -124.293,0 0,0 0.078,1.075 0.555,3.907 60.457,15.371 31.406,58.222 73.992,75.332 1.195,0.507 0,-39.942 0,-39.942 -1.824,-8.437 4.543,-14.219 -25.77,-30.273 0,-0.43 35.243,4.648 42.344,11.269 z m -54.961,30.297 c -0.164,0.211 -17.07,20.68 -2.742,36.188 22.391,24.257 74.988,24.199 82.508,59.64 2.109,0.801 17.226,10.223 18.066,10.223 9.531,-61.473 -85.535,-54.531 -97.832,-106.051 z m 83.145,104.332 c -6.282,-3.719 -9.785,-2.019 -9.883,-2.019 0,0 17.324,11.914 24.57,50.442 5.742,13.24 13.367,12.66 17.012,10.2 16.355,-10.2 -20.965,-54.205 -31.699,-58.623 z m 28.543,70.403 c -8.203,-1.66 -13.094,-2.81 -17.43,-9.96 -3.34,6.2 -2.5,6.2 -12.305,9.52 -12.863,0 -17.793,-4.16 -21.691,-10.49 -0.906,5.62 -8.406,10.07 -15.938,11.76 -13.875,0 -14.961,-5.59 -20.574,-11.76 0,0 -4.348,13.3 -17.18,12.17 -11.773,0 -18.418,-7.14 -20.312,-15.09 -4.395,4.76 -3.652,11.95 -17.84,12.65 -5.683,0.43 -14.648,-3.99 -16.32,-11.76 -0.797,0 -6.649,7.14 -13.133,9.76 -0.801,3.69 -7.355,44.23 -18.047,55.16 0,0.07 5.899,2.38 14.11,-3.07 11.406,-6.16 16.476,-43.61 16.476,-43.61 l 8.066,5.44 c 0,0 -0.527,23.85 -5.652,40.71 3.152,0.09 9.547,0.89 12.965,-3.21 6.164,-6.75 8.871,-33.25 8.871,-33.25 l 7.469,5.33 c 0,0 -2.024,19.64 -3.379,32.98 3.555,0.04 7.508,0.24 11.074,-4.39 4.746,-6.98 6.75,-24.16 6.75,-24.16 l 6.875,6.82 c 0,0 -1.953,11.18 -3.215,22.14 57.196,0.87 124.922,1.38 135.117,-0.66 0.391,0 -16.3,-16.96 -24.757,-53.03 z m 62.023,68.1 c -11.504,-2.92 -137.168,4.6 -202.371,-1.36 l 0,15.95 c 91.609,4.22 201.875,-3.39 201.875,-3.39 0,0 2.031,-6.1 0.496,-11.2"
         inkscape:connector-curvature="0" /><path
         id="path56"
         style="fill:#9a0150;fill-opacity:1;fill-rule:evenodd;stroke:none"
         d="m 1530.06,1134.09 c -34.55,64.52 -106.21,46.28 -116.95,41.24 -30.76,-8.71 -60.82,-50.59 -60,-92.01 -39.13,41.66 -20.73,122.35 -20.34,126.06 0.56,9.6 1.76,12.49 0.12,18.24 9.29,2.6 9.36,2.54 15.75,10.15 24.63,35.59 4.45,40.52 -9.71,23.11 1.58,23.14 -10.6,13.71 -17.18,11.06 -0.55,16.38 -12.24,7.61 -14.72,3.66 -7.19,24.19 -26.67,3.44 -31.92,-4.87 -22.55,7.36 -33.98,-3.68 -34.39,-3.68 21.01,-5.23 19.26,-11.04 19.67,-11.04 -2.47,-7.67 -9.37,-10.08 -19.67,-9.82 0.41,-1.25 15.95,-7.72 24.56,2.45 9.32,13.88 -8.96,18.48 -8.96,19.29 10.54,-0.09 22.2,-4.14 28.63,-5.8 23.41,-6 40.34,-16.06 41.72,-39.24 0.62,-11.03 -3.17,-23.69 -4.92,-31.94 -4.31,-20.27 -4.86,-51.9 0,-69.93 5.45,-20.44 30.41,-79.9 43.07,-53.95 5.45,11.25 5.79,30.63 15.22,56.4 11.35,30.76 46.67,56.08 89.6,47.21 75.85,-15.75 66.34,-76.46 63.98,-83.37 -2.28,-6.83 -7.42,-15.24 -7.42,-15.24 0,0 12.43,51.96 -28.13,60.71 10.65,-10.98 18.77,-60.69 -5.06,-81.02 21.31,39.67 3.51,83.35 -36.04,92.5 16.14,-16.06 36.04,-53.87 14.7,-83.38 3,26.43 1.97,63.54 -45.12,72.19 66.81,-38.27 22.43,-110.68 22.43,-111.48 58.99,56.94 30.34,99.36 30.34,99.36 0,0 31.95,-22.45 -0.86,-89.16 48.56,29.11 34.31,78.34 34.74,78.34 18.02,-11.93 4.7,-53.51 4.7,-54.31 0.8,0 13.89,14.11 18.6,30.82 5.17,18.41 -0.56,36.61 -6.44,47.45"
         inkscape:connector-curvature="0" /><path
         id="path58"
         style="fill:#9a0150;fill-opacity:1;fill-rule:evenodd;stroke:none"
         d="m 1281.26,1243.73 c 1.6,-0.93 11.01,6.57 11.01,7.37 -6.57,1.86 -9.41,4.87 -18.39,4.91 0.53,-2.56 3.56,-11.01 7.38,-12.28"
         inkscape:connector-curvature="0" /><path
         id="path60"
         style="fill:#9a0150;fill-opacity:1;fill-rule:evenodd;stroke:none"
         d="m 1330.05,832.914 3.71,0 c -0.69,-4.16 -3.71,-9.004 -3.71,-9.844 9.95,0.664 12.62,3.633 14.72,8.653 -0.37,8.281 -5.45,9.082 -9.79,13.476 0.16,0.801 5.35,5.352 6.15,8.555 1.05,4.434 -5.56,17.969 -3.67,24.57 1.7,5.86 7.1,5.742 8.56,12.246 -2.43,0.45 -4.89,0.84 -7.34,1.25 -5.83,27.735 13.12,39.7 15.8,63.586 13.94,-2.844 27.44,-1.113 38.19,3.926 -23.2,0.938 -62.23,9.91 -76.99,18.301 -23.3,7.793 -64.37,55.757 -69.62,64.457 -10.85,18 -21.43,51.94 -12.9,85.34 6.45,25.8 37.61,84.1 39.25,95.73 -1.31,11.74 -17.12,17.95 -19.65,18.4 0.56,-3.63 1.81,-4.55 2.47,-6.11 -38.87,-15.02 -29.45,-43.38 -14.74,-41.75 0.55,-2.4 -4.79,-9.45 6.14,-12.27 -2.63,-7.84 -27.01,-46.51 -28.24,-74.84 -3.37,-78.64 38.75,-101.41 44.2,-110.473 18.06,-29.957 -5.39,-48.183 -16.13,-50.293 -14.19,-2.773 -23.08,-5.515 -30.48,-3.359 -6.43,1.82 -9.22,9.551 -14.75,9.484 -11.46,-0.566 -12.62,-9.562 -19.56,-14.289 0,-1.961 15.36,8.528 14.64,3.223 -1.02,-4.004 -6.99,-11.375 -4.92,-22.059 4.05,2.344 1.34,3.387 3.7,7.352 2.47,4.23 8.83,6.386 12.27,9.816 3.66,-0.39 7.33,-0.812 11.03,-1.203 0.44,-0.418 0.84,-0.828 1.23,-1.23 -0.04,-9.336 -2.91,-15.977 -8.6,-19.688 l 0,-2.441 c 8.66,2.129 16,8.879 17.19,18.429 17.83,0.079 28.91,-1.328 39.28,-7.363 0.91,3.262 -0.49,6.875 1.22,9.832 7.33,5.586 15.72,3.703 25.35,8.789 1.99,1.008 6.33,4.297 7.78,5.957 0.41,0.391 1.73,0.11 1.73,-0.312 30.62,-23.653 12.17,-87.383 11.22,-90.664 2.85,-1.289 3.53,-1.914 3.53,-1.914 0,0 0.29,-0.704 0.81,-1.622 0.27,-0.195 0.51,-0.332 0.55,-0.41 13.41,25.883 10.17,68.567 3.02,85.051 -6.31,14.598 -34.56,40.215 -46.61,51.59 l 0,1.191 c 5.34,-4.472 42.25,-29.675 68.21,-33.086 0.47,-14.96 -10.56,-41.628 -10.56,-42.039 -0.02,-8.761 0,-16.593 1.24,-23.039 -1.46,-6.386 -0.85,-16.582 -2.95,-24.726 0,-2.871 0.92,-5.879 0.92,-8.692 -1.8,-3.75 -7.7,-3.75 -9,-9.59 -2.26,0.372 -3.9,2.348 -4.82,3.75 -1.26,1.055 -4.38,3.379 -4.38,3.379 0,0 0.02,0.059 0.04,0.157 -0.06,0.019 -0.16,0.062 -0.22,0.097 -5.19,-2.519 -7.46,-5.429 -18.85,-2.441 -3.18,-3.32 -6.16,-5.586 -8.59,-9.766 -9.24,1.094 -24.81,7.715 -35.61,3.672 -15.3,-5.82 -33.85,-26.68 -33.85,-26.68 0,0 -4.74,-6.757 -0.49,-8.886 3.48,-1.559 20.27,-1.055 28.29,-0.879 6.88,0.137 39.52,0.41 47.75,2.09 6.17,1.23 29.24,0.879 22.11,4.863 -4.52,3.027 -39.24,2.422 -39.24,2.422 -13.14,0 -28.24,0.742 -27.85,1.152 9.17,16.27 36.25,17.11 37.54,16.192 0.49,-0.762 0.24,-3.282 0.1,-7.52 l 2.45,0 c 2.99,6.797 7.29,8.246 11.08,13.574 3.47,-0.136 5.22,-0.527 7.37,-1.25 -4.4,-8.847 6.48,-18.086 6.48,-17.676 2.7,2.481 -1.1,8.223 0.86,11.543 2.34,2.735 6.24,3.305 8.58,6.133 5.65,-1.269 5.39,-5.566 7.35,-9.824"
         inkscape:connector-curvature="0" /><path
         id="path62"
         style="fill:#9a0150;fill-opacity:1;fill-rule:evenodd;stroke:none"
         d="m 1414.47,1096.6 c 10.65,-8.39 15.67,-9.55 23.89,-25.95 14.73,-29.45 -8.38,-49.83 -8.38,-50.67 34.06,21.23 29.47,83.07 -8.94,91.1 5.1,-4.57 19.45,-12.47 23.16,-34.81 0,-0.84 -14.22,20.82 -29.73,20.33"
         inkscape:connector-curvature="0" /><path
         id="path64"
         style="fill:#9a0150;fill-opacity:1;fill-rule:evenodd;stroke:none"
         d="m 1272.53,1048.7 c -1.86,1.6 -22.04,23.84 -12.14,75.96 -0.82,0 -30.62,-49.42 12.14,-75.96"
         inkscape:connector-curvature="0" /><path
         id="path66"
         style="fill:#9a0150;fill-opacity:1;fill-rule:evenodd;stroke:none"
         d="m 1372.12,979.77 c -3.86,-1.25 -34.01,-7.012 -69.63,32.28 -0.44,-0.67 23.98,-52.698 69.63,-32.28"
         inkscape:connector-curvature="0" /><path
         id="path68"
         style="fill:#9a0150;fill-opacity:1;fill-rule:evenodd;stroke:none"
         d="m 1372.12,979.77 c 0.29,0.078 0.47,0.156 0.43,0.156 -0.14,-0.059 -0.28,-0.098 -0.43,-0.156"
         inkscape:connector-curvature="0" /><path
         id="path70"
         style="fill:#9a0150;fill-opacity:1;fill-rule:evenodd;stroke:none"
         d="m 1302.98,1037.45 c -0.6,-0.85 24.22,-67.356 80.33,-45.63 -4.72,-1.297 -41.96,-6.922 -80.33,45.63"
         inkscape:connector-curvature="0" /><path
         id="path72"
         style="fill:#9a0150;fill-opacity:1;fill-rule:evenodd;stroke:none"
         d="m 1383.31,991.82 c 0.33,0.09 0.55,0.157 0.51,0.176 -0.18,-0.078 -0.36,-0.137 -0.51,-0.176"
         inkscape:connector-curvature="0" /><path
         id="path74"
         style="fill:#9a0150;fill-opacity:1;fill-rule:evenodd;stroke:none"
         d="m 1374.29,1018.28 c -0.36,0.18 -0.53,0.27 -0.53,0.23 0.17,-0.08 0.31,-0.15 0.53,-0.23"
         inkscape:connector-curvature="0" /><path
         id="path76"
         style="fill:#9a0150;fill-opacity:1;fill-rule:evenodd;stroke:none"
         d="m 1374.29,1018.28 c 4.16,-2.59 33.54,-26.096 21.1,-89.975 0.97,0.129 32.97,63.605 -21.1,89.975"
         inkscape:connector-curvature="0" /><path
         id="path78"
         style="fill:#9a0150;fill-opacity:1;fill-rule:evenodd;stroke:none"
         d="m 1385.02,1025.36 c -0.32,0.14 -0.52,0.21 -0.5,0.16 0.18,-0.04 0.36,-0.11 0.5,-0.16"
         inkscape:connector-curvature="0" /><path
         id="path80"
         style="fill:#9a0150;fill-opacity:1;fill-rule:evenodd;stroke:none"
         d="m 1385.02,1025.36 c 4.57,-1.97 36.99,-21.03 33.8,-85.981 0.95,0.234 23.56,67.601 -33.8,85.981"
         inkscape:connector-curvature="0" /><path
         id="path82"
         style="fill:#9a0150;fill-opacity:1;fill-rule:evenodd;stroke:none"
         d="m 1385,1035.46 c 0.12,-0.03 0.21,-0.03 0.33,-0.03 -0.21,0.03 -0.33,0.05 -0.33,0.03"
         inkscape:connector-curvature="0" /><path
         id="path84"
         style="fill:#9a0150;fill-opacity:1;fill-rule:evenodd;stroke:none"
         d="m 1385.33,1035.43 c 3.72,-0.69 46.79,-14.42 51.81,-76.606 0.91,0.43 14.12,70.856 -51.81,76.606"
         inkscape:connector-curvature="0" /><path
         id="path86"
         style="fill:#9a0150;fill-opacity:1;fill-rule:evenodd;stroke:none"
         d="m 1282.82,1053.73 c 0,-0.29 -13.76,17.37 -8.57,53.03 -0.57,0 -17.91,-32.89 8.57,-53.03"
         inkscape:connector-curvature="0" /><path
         id="path88"
         style="fill:#9a0150;fill-opacity:1;fill-rule:evenodd;stroke:none"
         d="m 1383.09,838.754 c -12.09,-0.117 -16.34,-6.524 -15.94,-7.324 10.82,-2.618 26.76,-3.535 38.34,-12.11 3.16,0.235 7.05,-0.234 7.05,-0.234 0,0 -6.03,17.461 -29.45,19.668"
         inkscape:connector-curvature="0" /><path
         id="path90"
         style="fill:#9a0150;fill-opacity:1;fill-rule:evenodd;stroke:none"
         d="m 1322.99,816.645 0,-2.461 c 8.59,-0.313 22.48,-2.071 30.64,-2.399 21.87,-0.941 51.66,3.336 54.55,4.332 3.46,0 4.36,2.149 4.36,2.969 -11.84,0.41 -23.69,0.84 -35.55,1.23 -6.07,-4.296 -43.21,-1.656 -54,-3.671"
         inkscape:connector-curvature="0" /><path
         id="path92"
         style="fill:#9a0150;fill-opacity:1;fill-rule:evenodd;stroke:none"
         d="m 1315.16,856.82 -0.71,-0.644 3.58,-3.574 1.63,-0.664 0.25,0.742 -0.61,2.461 -4.14,1.679"
         inkscape:connector-curvature="0" /><path
         id="path94"
         style="fill:#9a0150;fill-opacity:1;fill-rule:evenodd;stroke:none"
         d="m 1067.57,918.012 c -0.66,14.277 -0.66,32.363 0,46.613 44.63,5.059 74.85,29.09 85.26,61.995 32.54,102.65 -74.17,114.26 -84.03,119.67 -0.41,8.97 0.78,17.7 0.37,26.75 68.51,8.81 92.74,71.12 56.06,125.4 -15.53,23.03 -65.44,31.92 -66.25,31.92 -0.59,32.83 -4.43,78.52 -15.25,97.12 -6.11,5.73 -10.17,6.43 -16.68,7.18 -37.499,0.98 -29.433,-93.65 -30.761,-97.49 -16.699,2.05 -30.75,8.38 -36.601,22.37 -5.274,12.68 1.746,23.97 1.769,23.97 22.625,1.17 31.074,29.78 30.027,57.31 -0.332,8.93 -3.437,22.31 0,28.2 0.293,14.28 -5.566,8.14 -12.304,15.14 -1.805,2.74 2.422,9.39 4.902,11.84 9.551,9.43 20.378,19.04 31.958,27.02 -9.09,-2.66 -30.142,-21.62 -33.208,-21.92 -11.551,-2.41 5.371,42.8 4.961,42.8 -4.238,-10.08 -9.531,-23.02 -12.727,-35.95 -2.605,-10.53 8.391,-13.01 0.45,-22.97 -1.551,-1.93 -5.192,0.18 -8.61,-1.23 -3.879,-1.64 -55.355,-47.24 -41.242,-76.44 1.27,-2.7 5.117,-8.11 3.223,-14.38 -2.551,-8.34 -9.785,-15.24 -12.297,-24.55 -15.828,-58.81 34.16,-82.58 77.922,-87.29 0.39,-0.43 -0.235,-25.23 0.293,-37.95 -44.258,-4.76 -79.805,-21.38 -96.575,-53.92 -8.496,-16.41 -9.871,-44.42 0,-61.38 19.454,-33.48 48.489,-47.63 85.852,-63.78 0.098,-7.4 0.285,-33.48 0.285,-36.33 -40.363,-8.25 -79.836,-24.39 -98.41,-54.472 -12.012,-19.406 -11.816,-50.891 0,-69.992 15.117,-24.395 59.609,-49.727 94.461,-54.004 -0.25,-7.793 1.086,-34.61 0,-37.989 -10.234,-1.113 -39.344,-15.41 -53.992,-46.64 -16.543,-49.645 20.859,-70.293 52.773,-85.918 -0.176,-39.613 -5.898,-83.07 -4.933,-112.875 5.433,-8.535 10.781,-15.293 20.89,-18.457 4.141,-1.895 16.214,2.988 24.544,2.461 3.63,-0.215 4.63,-1.035 6.14,-2.461 7.72,-7.305 41.95,5.215 46.62,15.937 1.02,2.383 0,22.832 0,31.973 -0.39,24.141 -0.8,44.98 -1.19,69.07 8.07,7.555 19.54,21.289 25.69,30.524 33.18,50.156 -20.7,47.386 -29.39,46.406 0.41,6.156 -0.54,11.875 -0.12,18.008 44.24,8.574 81.35,20.312 91.99,62.793 19.8,78.906 -60.05,95.097 -91.87,95.918 z m -49.91,504.028 c 4.54,6.14 11.2,8.92 17.77,5.08 13.07,-7.55 14.75,-70.11 16.17,-90.63 0.98,-13.61 4.66,-73.32 1.23,-83.45 -10.15,-2.33 -42.63,-7.87 -42.63,-7.87 0,0 -9.85,144.01 7.46,176.87 z m -32.32,-127.27 c 0.715,9.02 6.594,19.17 5.168,20.94 -3.184,1.67 -27.656,-11.1 -28.465,-11.1 2.41,7.1 16.844,21.49 12.832,21.92 -1.789,1.57 -32.473,-3.55 -38.625,-3.55 0,0.41 21.328,11.57 20.418,13.53 -0.094,2.45 -27.723,10.07 -28.992,11.03 4.152,1.69 16.738,4.29 16.386,6.38 0.176,3.72 -10.039,10.96 -16.386,14.46 4.152,1.38 15.988,2.99 16.953,5.59 0.801,6.38 -6.856,8.98 -9.609,16.51 -0.586,0.43 13.476,15.14 7.148,17.79 -22.031,9.08 24.422,72.5 27.957,72.24 8.215,-0.38 8.996,-1.87 13.703,-5.08 -0.43,-11.49 -6.25,-15.74 -8.723,-24.57 -2.039,-7.47 -5.71,-21.38 -4.707,-29.72 3.852,2.55 5.411,5.57 8.567,8.88 -1.692,9.65 2.441,14.9 5.117,21.84 9.109,-35.59 -10.801,-62.91 -27.434,-64.26 -0.039,0 -0.039,-0.02 -0.019,-0.04 -0.387,-0.17 -0.703,-1.21 -0.703,-1.21 l 0.023,-0.01 c -2.949,-7.57 -2.101,-5.11 -3.324,-9.72 -2.734,-10.48 -0.391,-41.78 42.668,-45.01 -0.078,-10.71 0.898,-21.24 -0.137,-30.71 -3.281,-1.68 -9.445,-6.13 -9.816,-6.13 z m -39.891,-190.54 c 0,0.41 23.75,16.77 22.723,20.31 -2.02,5.96 -48.289,8.12 -52.801,11.93 -3.781,6.05 30.078,1.29 30.664,6.12 2.129,4.33 -29.445,31.51 -29.445,31.93 12.941,-4.2 34.512,-19.58 39.359,-15.4 3.543,2.72 -20.929,46.46 -20.929,47.28 11.406,-11.44 33.191,-31.19 37.207,-29.33 4.921,2.97 -10.207,39.65 -7.735,41.63 10.438,-3.25 31.914,-32.02 36.878,-29.69 3.72,1.74 -7.425,32.12 -7.425,33.35 13.695,-6.97 46.035,-34.37 50.135,-32.86 4.59,5.09 -20.71,37.37 -20.71,37.77 16.36,-5.74 71.49,-23.64 73.67,-20.87 2.53,3.58 -43,33.98 -43,34.37 65.59,2.37 66.26,6.52 66.26,7.36 1.7,5.53 -49.42,18.42 -50.27,18.42 29.6,10.48 37.61,15.95 38.02,15.95 -4.22,7.24 -34.25,4.01 -45.41,3.68 -0.78,11.84 -1.62,24.68 -2.44,36.53 30.59,-1.96 61.71,-22.26 68.72,-46.34 10.52,-35.96 4.62,-66.78 -25.89,-84.05 -27.4,-15.53 -88.41,-16.26 -101.66,-19.28 -30.483,-7.1 -23.362,-25.43 -14.222,-36.64 0.43,-11.07 1.7,-16.24 -0.527,-23.39 -0.851,-6.09 -37.812,-14.45 -41.172,-8.78 z m 67.771,-69.28 c -2.05,0 -9.87,-1.57 -11.95,-1.57 0,26.15 1.77,119.57 -0.59,127.07 15.7,3.73 40.69,4.75 58.32,9.12 0.22,-25.84 1.35,-118.58 1.35,-123.93 -2.63,-3.72 -31.92,-10.04 -40.31,-10.03 -1.37,11.65 -3.09,85.57 -3.09,85.57 0,0 -2.88,-13.04 -3.73,-13.04 -0.3,-22.37 0.43,-72.77 0,-73.19 z M 962.453,875.121 c 5.895,9.219 6.883,18.867 8.086,23.77 -5.734,1.621 -61.301,-0.918 -61.301,-0.528 8.848,4.199 31.328,11.856 30.684,14.688 1.152,6.328 -38.652,25.117 -41.692,29.492 14.356,-1.941 39.446,-9.961 40.481,-6.102 1.855,4.129 -23.34,41.309 -23.34,41.68 14.824,-7.062 37.375,-28.594 40.926,-26.574 3.91,1.523 -11.492,40.508 -11.492,41.301 9.726,-6.477 29.617,-27.735 33.183,-25.743 2.219,1.231 -6.152,35.175 -6.152,36.835 11.043,-10.663 29.294,-28.592 32.264,-27.491 3.34,0.41 -2.83,36.891 -2.83,37.281 14.89,-9.92 35.65,-33.375 40.53,-32.496 4.49,2.676 -7.39,32.256 -7.39,32.686 10.92,-2.99 46.02,-28.065 50.94,-24.619 4.67,7.89 -22.71,32.619 -22.71,33.019 14.74,-2.05 55.9,-10.34 60.16,-3.66 2.04,6.4 -42.57,24.11 -42.98,24.53 8.68,2.37 52.27,15.17 48.79,21.11 -4.04,6.41 -53.84,0 -51.23,3.46 0.15,6.11 28.72,20.75 28.14,25.45 -4.29,7.29 -26.66,-1.82 -37.95,-2.14 0.04,15.22 1.07,30.52 1.23,44.17 31.96,-3.44 60.5,-18.32 72.4,-42.97 22.84,-47.37 -4.63,-95.098 -39.31,-109.227 -29.31,-11.906 -74.7,-8.215 -107.945,-17.168 -31.172,-8.359 -23.058,-35.305 -12.226,-41.738 l 0,-41.711 c -5.91,-2.988 -18.887,-7.305 -19.266,-7.305 z m 97.747,-44.219 c -0.81,-2.168 -0.24,-1.25 -1.22,-2.519 -7.18,-5.703 -25.93,-6.485 -38.04,-6.133 -0.83,27.793 -1.83,131.602 0,136.945 10.94,1.621 37.23,4.227 38.04,4.227 0.4,-22.93 3.34,-128.965 1.22,-132.52 z m -43.32,-8.808 c -6.36,-1.817 -10.27,-2.696 -15.61,-3.496 -0.18,21.484 -0.92,129.55 3.54,136.484 1.52,2.531 7.92,3.145 8.74,3.145 0.16,-51.543 3.46,-87.5 3.33,-136.133 z m -2.07,-263.656 c -4.93,-0.45 -9.82,-0.86 -14.77,-1.25 3.19,27.871 2.58,55.878 -3.653,82.226 -1.231,5.137 5.063,19.477 4.293,22.25 -1.344,4.961 -3.25,10.039 -4.059,13.578 -0.937,4.121 0.879,9.293 1.367,11.5 2.972,13.516 3.382,57.598 3.382,57.598 0,0 2.06,7.109 16.79,8.34 0,0 3.53,-133.149 -3.35,-194.242 z m 14.73,-4.903 c -3.11,0.391 -2.49,51.543 -2.49,63.36 4.81,11.25 35.59,40.941 35.59,40.941 0,0 0.74,-67.055 1.07,-91.02 -7.43,-11.523 -33.5,-15.605 -34.17,-13.281 z m 47.07,139.285 c -0.7,3.418 -5.26,8.258 -4.56,11.09 0.89,6.602 11.16,14.828 10.14,18.91 -2.9,2.965 -8.09,1.969 -13.59,1.071 0,4.593 0.18,6.761 0.18,11.308 13.79,0.199 29.93,-0.39 29.52,-16.308 -0.33,-12.793 -26.84,-41.442 -46.42,-61.055 -9.16,-9.125 -28.12,-30.668 -28.51,-30.668 -0.1,5.859 -0.04,10.352 2.47,13.496 1.78,4.707 12.51,10.469 13.3,11.914 1.07,3.367 -3.22,4.438 -2.48,6.277 2.81,4.469 17.72,9.606 19.89,11.875 1.17,3.965 -0.29,8.825 0.25,10.27 1.57,6.289 18.64,9.434 19.81,11.82 z m -52.89,60.758 c 0,0 34.84,4.121 35.26,3.695 0.02,-13.789 3.11,-48.226 -1.22,-60.238 -4.03,-10.957 -31.51,-41.644 -31.92,-41.644 0.1,24.558 -2.12,98.187 -2.12,98.187 z m 104.73,36.231 c -15.74,-10.684 -53.88,-25.469 -104.04,-26.504 -50.992,-0.977 -50.144,-28.395 -39.305,-34.02 0.665,-10.101 0,-4.336 0,-17.816 -6.941,0.117 -27.597,-0.879 -29.226,-0.879 0,0.449 12.988,10.277 12.293,14.16 -0.957,3.91 -26.266,6.66 -25.77,7.949 0.516,3.965 21.875,5.785 23.075,8.949 0.918,4.684 -24.696,16.52 -24.325,18.125 3.282,1.618 30.684,-5.293 34.504,-1.82 2.371,3.871 -19.777,23.457 -19.777,23.848 14.051,-2.399 34.023,-13.063 35.351,-10.996 2.403,2.308 -9.55,24.883 -9.55,25.683 6.445,-4.101 34.28,-21.129 35.27,-19.57 2.22,1.543 -9.53,22.852 -9.53,23.281 7.67,-2.246 43.52,-25.898 47.05,-24.726 4.09,2.109 -17.6,30.062 -17.6,30.879 10.25,-4.141 54.97,-21.407 57.68,-18.418 1.4,2.871 -26.98,24.179 -26.98,24.57 16.02,-0.117 55.56,1.172 56.32,5.215 0.78,4.277 -42.8,13.418 -44.07,14.433 0.08,1.875 50.7,17.657 47.66,21.485 -9.41,3.574 -49.69,2.988 -51.34,2.988 1.98,4.844 37.32,24.902 35.63,26.973 -2.66,2.5 -36.97,-6.075 -42.27,-6.075 -1.02,8.301 -0.58,22.637 -0.7,32.872 27.26,0.273 62.48,-12.11 73.62,-29.2 20.25,-31.152 9.59,-75.468 -13.97,-91.386"
         inkscape:connector-curvature="0" /><path
         id="path96"
         style="fill:#9a0150;fill-opacity:1;fill-rule:nonzero;stroke:none"
         d="m 505.938,628.203 -19.454,-4.805 c -1.464,-0.293 -2.296,-0.566 -3.859,0.118 -2.195,0.957 -3.359,2.949 -3.359,5.214 0,2.93 2.562,4.825 5.382,4.825 1.133,0 3.477,-0.625 4.774,-0.84 l 16.516,-2.891 z m 4.207,10.899 -14.59,9.14 c -2.578,1.465 -5.563,3.008 -5.563,6.465 0,3.051 2.293,5.258 5.332,5.258 3.641,0 4.668,-2.809 6.434,-5.375 l 9.344,-14.434 z m 0.957,-21.563 -10.723,-16.621 c -1.414,-2.09 -2.578,-3.086 -5.274,-3.086 -2.82,0 -5,2.168 -5,4.961 0,3.379 2.793,4.629 5.219,6.25 l 14.59,9.492 z m 10.207,-0.117 c -6.036,0 -11.164,4.922 -11.164,11.133 0,6.015 4.796,11.133 11.058,11.133 5.957,0 11.051,-4.903 11.051,-10.801 0,-6.192 -4.629,-11.465 -10.945,-11.465 z m -0.918,26.426 -4.2,19.242 c -0.343,1.621 -0.586,2.562 0,4.066 0.704,2.106 2.645,3.395 4.774,3.395 2.922,0 5.597,-2.438 5.597,-5.371 0,-1.055 -0.722,-3.457 -0.945,-4.528 l -3.605,-16.804 z m 1.523,-30.235 3.926,-17.129 c 0.262,-1.015 0.84,-3.339 0.84,-4.531 0,-2.871 -2.793,-5.156 -5.586,-5.156 -2.481,0 -5.137,2.539 -5.137,5.156 0,1.192 0.578,3.516 0.82,4.531 l 3.477,17.129 z m 9.297,26.68 9.207,14.414 c 1.73,2.797 2.805,5.492 6.625,5.492 2.793,0 5.145,-2.441 5.145,-5.238 0,-3.789 -2.708,-4.863 -5.626,-6.719 l -14.199,-9.14 z m 1.152,-21.758 14.785,-9.492 c 2.551,-1.621 5.243,-2.773 5.243,-6.25 0,-2.949 -2.305,-5.332 -5.348,-5.332 -2.336,0 -3.363,1.016 -4.543,2.773 l -11.172,17.305 z m 4.219,11.289 16.75,3.321 c 1.168,0.273 3.496,0.703 4.547,0.703 2.793,0 5.351,-2.305 5.351,-5.118 0,-2.656 -2.558,-5.078 -5.242,-5.078 -1.523,0 -3.242,0.469 -4.656,0.684 l -16.75,3.867 0,1.621"
         inkscape:connector-curvature="0" /><path
         id="path98"
         style="fill:#9a0150;fill-opacity:1;fill-rule:nonzero;stroke:none"
         d="m 1495.04,628.359 -19.47,-4.804 c -1.51,-0.352 -2.32,-0.567 -3.84,0.117 -2.21,0.918 -3.39,2.949 -3.39,5.234 0,2.891 2.59,4.766 5.38,4.766 1.14,0 3.45,-0.606 4.73,-0.84 l 16.59,-2.871 z m 4.14,10.899 -14.53,9.121 c -2.53,1.484 -5.62,3.066 -5.62,6.484 0,3.035 2.36,5.219 5.42,5.219 3.58,0 4.6,-2.773 6.38,-5.375 l 9.31,-14.414 z m 0.96,-21.563 -10.74,-16.621 c -1.37,-2.09 -2.54,-3.086 -5.18,-3.086 -2.83,0 -5.07,2.11 -5.07,4.942 0,3.379 2.83,4.629 5.3,6.269 l 14.51,9.473 z m 10.24,-0.117 c -6.04,0 -11.2,4.942 -11.2,11.094 0,6.016 4.79,11.152 11.08,11.152 5.91,0 11.09,-4.883 11.09,-10.82 0,-6.172 -4.69,-11.426 -10.97,-11.426 z m -0.92,26.465 -4.2,19.187 c -0.38,1.637 -0.59,2.575 0,4.059 0.68,2.09 2.69,3.402 4.79,3.402 2.92,0 5.56,-2.461 5.56,-5.332 0,-1.117 -0.7,-3.48 -0.93,-4.554 l -3.59,-16.762 z m 1.54,-30.293 3.91,-17.09 c 0.23,-1.015 0.81,-3.379 0.81,-4.551 0,-2.851 -2.75,-5.156 -5.6,-5.156 -2.41,0 -5.12,2.539 -5.12,5.156 0,1.172 0.62,3.536 0.84,4.551 l 3.5,17.09 z m 9.29,26.68 9.18,14.433 c 1.75,2.797 2.78,5.457 6.68,5.457 2.76,0 5.11,-2.422 5.11,-5.242 0,-3.789 -2.69,-4.863 -5.58,-6.699 l -14.22,-9.121 z m 1.17,-21.758 14.79,-9.473 c 2.56,-1.64 5.23,-2.773 5.23,-6.269 0,-2.91 -2.32,-5.332 -5.33,-5.332 -2.35,0 -3.44,1.035 -4.6,2.773 l -11.18,17.324 z m 4.21,11.289 16.74,3.34 c 1.18,0.254 3.53,0.703 4.56,0.703 2.78,0 5.34,-2.305 5.34,-5.098 0,-2.656 -2.56,-5.136 -5.2,-5.136 -1.56,0 -3.31,0.468 -4.7,0.703 l -16.74,3.886 0,1.602"
         inkscape:connector-curvature="0" /><path
         id="path100"
         style="fill:#9a0150;fill-opacity:1;fill-rule:nonzero;stroke:none"
         d="m 837.324,1579.7 -7.156,-1.81 c -3.207,-0.53 -5.688,1.38 -7.59,5.86 -2.461,5.9 -6.25,16.98 -10.664,29.83 0,0 -4.461,13.14 -4.57,13.49 0.086,-0.11 0.586,0.06 0.586,0.06 l 0,0 c 0,-0.08 2.129,-1.56 2.129,-1.56 4.336,-3.07 43.632,-26.43 51.972,-29.93 8.067,-3.38 13.008,-5.19 20.996,-3.26 l 9.922,3.08 c 0,0 8.477,2.47 24.617,4.39 l 15.899,1.38 c 1.652,0.17 2.707,0.59 2.531,1.97 -0.117,1.16 -0.918,1.29 -2.586,1.1 l -2.246,-0.24 c -2.219,-0.27 -3.859,0.02 -4.875,0.82 -0.82,0.63 -1.269,1.6 -1.445,2.96 -0.176,1.71 0.117,5.33 1.211,9.31 l 5.593,22.39 c 0.18,0.87 0.411,1.15 1.075,1.21 l 33.429,3.8 c 0.676,0.06 1.063,-0.12 1.414,-0.76 l 15.625,-30.37 c 0.286,-0.51 0.364,-0.96 0.364,-1.35 0.136,-0.45 0.117,-0.99 -0.215,-1.39 -0.223,-0.31 -0.567,-0.49 -0.938,-0.57 l -0.058,-0.04 c -1.367,-0.31 -2.176,-0.66 -2.059,-1.77 0.133,-1.16 1.727,-1.07 4.156,-0.89 l 0.664,0.04 28.335,2.94 c 4.51,0.51 6.12,0.9 6.67,1.63 l 0.03,0.09 c 0.18,0.23 0.28,0.5 0.26,0.8 -0.01,0.23 -0.14,0.41 -0.28,0.57 -0.37,0.63 -1.16,0.66 -2.05,0.54 l -6.35,-0.11 c -3.5,0.45 -8.01,2.49 -14.923,14.7 l -30.188,55.57 -17.507,32.29 c -1.856,3.16 -2.969,4.62 -4.493,4.44 -1.648,-0.19 -2.382,-2.16 -3.632,-6.59 l -26.809,-98.38 c -1.484,-5.42 -3.004,-9.98 -6.531,-12.66 -3.555,-1.82 -11.164,-1.01 -11.164,-1.01 -8.211,0.33 -16.328,4.11 -24.188,7.77 l -1.437,0.67 c -7.344,3.37 -45.586,23.97 -52.996,28.88 3.144,6.52 17.394,35.35 20.332,41.12 3.671,7.2 7.41,12.24 11.738,15.89 2.402,1.94 5.762,3.71 7.715,4.35 0.672,0.26 1.105,0.52 1.398,0.82 0.348,0.21 0.586,0.59 0.586,1.06 0,0.69 -0.609,1.29 -1.328,1.29 -0.023,0 -0.063,-0.01 -0.102,-0.01 -0.593,0.05 -1.277,-0.15 -1.843,-0.34 l -16.582,-6.14 -14.813,-4.58 c -0.547,-0.16 -0.949,-0.35 -1.25,-0.53 -0.531,-0.17 -0.93,-0.64 -0.93,-1.22 0,-0.42 0.196,-0.76 0.508,-1 0.489,-0.53 1.262,-0.53 2.219,-0.43 1.344,0.18 2.223,-0.48 2.82,-2.06 0.118,-0.37 0.176,-0.8 0.176,-1.31 0,-2.41 -1.535,-6.18 -3.312,-10.73 l -0.391,-0.97 c -1.473,-3.76 -6.941,-15.51 -11.824,-25.83 0,0 -7.239,-15.7 -7.258,-15.73 -0.02,0.03 -0.25,-0.06 -0.426,-0.13 -0.117,0.29 -2.297,6.69 -2.297,6.69 -7.297,21.34 -8.582,25.18 -9.843,29.79 -0.489,1.84 -0.782,3.32 -0.782,4.59 0,2.44 1.035,3.91 3.192,5.15 l 3.82,1.77 c 0.43,0.15 1.406,0.52 1.641,1.32 l 0,0 c 0.039,0.1 0.117,0.2 0.117,0.35 0,0.02 -0.02,0.06 -0.02,0.09 0,0 0.02,0 0.02,0.02 0,0.46 -0.254,0.82 -0.606,1.03 -0.058,0.06 -0.097,0.1 -0.097,0.1 -0.567,0.28 -1.465,0.17 -3.028,-0.35 l -10.011,-3.68 -7.09,-2.63 -6.426,-2.02 -13.75,-4.37 c -2.02,-0.72 -3.191,-1.39 -2.801,-2.58 0.449,-1.27 1.817,-0.99 3.094,-0.59 1.894,0.65 4.434,1.37 5.695,1.48 5.098,0.6 6.887,-1.42 8.711,-5.91 1.844,-4.45 3.153,-8.29 10.41,-29.63 l 8.809,-25.63 c 4.414,-13.08 8.281,-24.39 9.598,-30.64 0.812,-4.06 1.25,-7.53 -1.356,-9.05 l -4.933,-2.33 c -1.102,-0.37 -1.797,-0.84 -1.914,-1.46 -0.153,-0.93 0.617,-1.49 0.617,-1.49 0.672,-0.49 1.523,-0.2 2.871,0.25 l 11.172,4.08 6.66,2.5 6.523,2.06 14.141,4.51 c 1.883,0.61 2.703,1.54 2.344,2.57 -0.637,1.31 -2.442,0.6 -2.442,0.6 z m 125.586,72.67 c -0.039,-0.15 -0.234,-0.22 -0.48,-0.26 l -27.586,-3.17 c -0.176,-0.03 -0.313,0 -0.41,0.11 -0.118,0.11 -0.157,0.35 -0.118,0.67 l 9.539,38.4 c 0.09,0.76 0.325,1.29 0.579,1.32 0.293,0.04 0.507,-0.56 0.683,-1.03 0.039,-0.13 17.774,-35.57 17.774,-35.57 0.058,-0.1 0.117,-0.32 0.019,-0.47"
         inkscape:connector-curvature="0" /><path
         id="path102"
         style="fill:#9a0150;fill-opacity:1;fill-rule:nonzero;stroke:none"
         d="m 1004.66,451.426 c -42.871,1.308 -63.39,-28.77 -64.289,-57.324 -0.891,-28.497 17.176,-59.805 59.043,-61.114 18.106,-0.625 33.896,4.942 45.646,15.938 11.63,10.976 18.3,26.543 18.89,44.023 1.07,34.824 -21.64,57.246 -59.29,58.477 z M 1006,340.625 c -11.801,0.371 -22.133,4.941 -29.859,13.184 -9.891,10.546 -15.016,26.347 -14.473,44.296 0.547,16.993 4.98,29.454 13.168,37.247 8.055,7.519 18.164,8.828 25.204,8.613 11,-0.332 20.79,-4.746 28.27,-12.754 9.57,-10.176 14.57,-25.508 14,-43.125 -1.37,-43.789 -25.85,-47.754 -36.31,-47.461"
         inkscape:connector-curvature="0" /><path
         id="path104"
         style="fill:#9a0150;fill-opacity:1;fill-rule:nonzero;stroke:none"
         d="m 1211.84,362.5 c -0.24,-0.488 -0.84,-0.781 -2.02,-1.055 l -17.98,-4.14 -6.57,-1.446 -6.87,-1.894 -18.03,-4.883 c -1.53,-0.273 -2.6,-0.273 -2.89,0.898 -0.27,1.133 0.25,1.797 0.94,1.954 1.6,0.39 8.76,2.714 11.4,4.023 4.14,2.031 4.6,4.141 3.88,8.965 -1.03,6.523 -4.07,18.848 -7.58,33.086 l -5.77,23.222 0,0 c 0,0 -4.9,19.18 -4.9,19.239 -0.87,3.457 -1.28,5.019 -3.3,4.531 -1.94,-0.508 -7.45,-4.98 -11.46,-8.242 l -3.71,-2.93 c -2.64,-1.855 -3.6,0.371 -3.6,0.371 -0.27,1.153 0.62,2.129 1.01,2.598 0.57,0.41 23.83,25.683 28.2,30.879 1.09,1.289 2.3,2.617 3.45,2.851 0.8,0.196 1.91,-0.136 2.59,-2.773 l 0.38,-1.895 c 1.03,-4.921 3.75,-18.007 8.31,-36.367 l 6.69,-27.09 c 3.37,-13.535 6.58,-26.425 8.75,-32.754 1.6,-4.531 2.79,-6.484 7.65,-6.289 2.26,0.079 8.61,1.172 9.82,1.485 0,0 2.78,0.234 1.61,-2.344"
         inkscape:connector-curvature="0" /><path
         id="path106"
         style="fill:#9a0150;fill-opacity:1;fill-rule:nonzero;stroke:none"
         d="m 1296.72,428.145 c -7.31,17.734 -27.36,19.785 -38.24,20.859 0.64,0.625 1.32,1.328 1.97,2.109 4.81,5.039 13.83,17.598 7.85,32.012 -2.28,5.566 -6.01,9.434 -11.12,11.523 -7.08,2.969 -16.5,2.305 -26.46,-1.875 -18.45,-7.5 -24.41,-20.156 -24.41,-30.293 0,-3.261 0.64,-6.289 1.66,-8.789 4.26,-10.253 14.04,-15.761 30.76,-17.246 -2.1,-1.992 -4.05,-4.218 -5.84,-6.601 -6.03,-7.637 -9.2,-15.742 -9.2,-23.672 0,-3.945 0.74,-7.774 2.27,-11.406 2.92,-6.993 7.93,-12.188 14.49,-14.864 8.78,-3.711 20.12,-3.066 32.02,1.895 24.35,10.058 30.62,30.996 24.25,46.348 z m -38.29,20.781 c 1.69,-0.196 3.68,-0.449 5.81,-0.742 -2.11,0.273 -4.12,0.468 -5.93,0.644 0.04,0.02 0.06,0.078 0.12,0.098 z m -36.03,11.914 c 0.22,-0.274 0.41,-0.528 0.61,-0.801 -0.51,0.801 -0.96,1.66 -1.36,2.598 -0.97,2.402 -1.47,4.961 -1.47,7.343 0,2.188 0.41,4.336 1.21,6.25 1.75,4.239 5.26,7.461 10.4,9.668 8.89,3.692 17.94,-0.507 21.96,-10.195 5.41,-13.144 -0.73,-22.441 -4.86,-26.797 -10.62,1.328 -17.41,3.36 -21.83,6.699 1.54,-1.23 3.39,-2.285 5.42,-3.164 -4.72,1.895 -8.01,4.512 -10.08,8.399 z m 16.39,-24.317 c -1.65,0.196 -3.22,0.391 -4.75,0.625 1.57,-0.234 3.19,-0.351 4.83,-0.546 -0.02,0 -0.04,-0.079 -0.08,-0.079 z m 31.98,-47.5 c -11.3,-4.668 -24.06,1.133 -29.07,13.184 -6.3,15.254 0.57,27.637 5.26,33.672 14.81,-2.09 28.97,-4.102 34.69,-17.949 5.01,-12.071 0.43,-24.297 -10.88,-28.907"
         inkscape:connector-curvature="0" /><path
         id="path108"
         style="fill:#9a0150;fill-opacity:1;fill-rule:nonzero;stroke:none"
         d="m 1386.15,441.836 -16.03,-9.258 -5.74,-3.379 -6.12,-3.847 -15.75,-9.844 c -1.36,-0.781 -2.33,-1.094 -2.99,-0.02 -0.59,0.977 -0.26,1.817 0.34,2.188 1.39,0.84 7.54,5.039 9.73,7.051 3.31,3.183 3.13,5.332 1.02,9.824 -2.99,6.035 -9.77,17.304 -17.02,29.336 l -12.39,20.468 -6.49,10.567 -3.86,6.25 c -1.26,2.09 -2.1,3.516 -3.08,3.789 l -1.4,-0.371 c -1.72,-1.035 -5.6,-6.778 -8.42,-11.035 0,0 -2.77,-4.082 -2.85,-4.16 0,0 -1.82,-2.715 -3.46,-0.645 -0.64,1.016 -0.08,2.207 0.2,2.715 0.37,0.644 15.17,31.719 17.79,37.832 0,0 1.61,4.336 3.57,4.023 0.69,-0.175 1.39,-0.879 2.13,-2.109 l 1.06,-1.856 18.55,-32.128 14.44,-23.868 c 7.22,-11.933 14.07,-23.3 18.04,-28.691 2.81,-3.77 4.54,-5.332 9.18,-3.77 2.18,0.782 7.93,3.75 8.93,4.356 0.56,0.351 1.46,0.234 2.06,-0.762 0,0 1.06,-1.484 -1.44,-2.656"
         inkscape:connector-curvature="0" /><path
         id="path110"
         style="fill:#9a0150;fill-opacity:1;fill-rule:nonzero;stroke:none"
         d="m 1440.1,556.895 c -5.96,7.148 -21.87,23.886 -40.78,25.585 -9.34,0.821 -18.23,-2.128 -26.3,-8.847 -21.02,-17.617 -18.46,-45.195 7.04,-75.664 17.35,-20.821 44.12,-36.094 67.17,-16.895 8.23,6.992 12.88,15.469 13.75,25.371 1.34,15.117 -5.86,32.559 -20.88,50.45 z m 4.76,-68.399 c -14.25,-11.973 -38.17,6.348 -54.29,25.645 -14.05,16.797 -21.29,31.718 -20.36,41.992 0.38,4.199 2.06,7.519 5,10 3.43,2.91 7.65,4.101 12.54,3.672 13.98,-1.25 30.84,-15.918 41.98,-29.16 19.96,-23.965 25.59,-43.457 15.13,-52.149"
         inkscape:connector-curvature="0" /><path
         id="path112"
         style="fill:#9a0150;fill-opacity:1;fill-rule:nonzero;stroke:none"
         d="m 451.68,1197.91 c -8.633,13.38 -22.805,22.74 -39.883,26.46 -15.899,3.4 -30.516,1.18 -42.266,-6.42 -12.871,-8.28 -21.836,-22.63 -25.859,-41.43 -9.051,-41.93 16.883,-67.49 44.805,-73.51 27.878,-6.01 61.972,6.19 70.781,47.09 3.82,17.73 1.211,34.23 -7.578,47.81 z m 1.172,-39.93 c -5.684,-26.54 -32.207,-40.24 -64.481,-33.33 -39.992,8.63 -41.105,32.53 -38.226,46.01 5.48,25.3 31.23,38.27 62.609,31.52 42.785,-9.2 42.293,-33.97 40.098,-44.2"
         inkscape:connector-curvature="0" /><path
         id="path114"
         style="fill:#9a0150;fill-opacity:1;fill-rule:nonzero;stroke:none"
         d="m 383.223,1289.02 c 0.566,0.19 1.004,0.78 1.543,1.92 l 2.5,4.24 c 3.105,4.13 5.812,4 10.351,2.19 4.481,-1.78 8.262,-3.51 29.012,-13.27 l 24.082,-11.26 c 12.519,-5.84 23.351,-10.92 28.723,-14.3 3.476,-2.25 6.308,-4.34 5.605,-7.27 0,-0.02 -1.797,-5.14 -1.797,-5.14 -0.488,-1.08 -0.637,-1.8 -0.43,-2.32 0,0 0.45,-1.18 1.7,-0.69 0.605,0.24 1.191,0.98 1.804,2.26 l 4.114,9.56 2.363,5.27 1.172,2.55 10.488,21.04 8.945,18.27 c 3.29,7.09 3.008,8.26 0.274,10.55 -3.449,2.99 -13.164,8.71 -14.766,9.47 -1.543,0.68 -2.551,1.04 -3.074,-0.11 -0.617,-1.28 0.348,-2.02 1.434,-2.65 2.449,-1.54 5.449,-4.94 6.414,-7.34 2.004,-4.9 -0.055,-9.94 -3.614,-17.61 -5.164,-10.99 -7.742,-13.74 -10.671,-15.03 -3.731,-1.68 -13.231,2.76 -30.489,10.87 l -24.648,11.52 c -20.371,9.55 -24.063,11.26 -28.235,13.58 -4.988,2.64 -6.316,4.81 -5.367,8.45 l 2.09,5.55 c 0.738,1.54 0.996,2.73 -0.16,3.26 -1.168,0.54 -1.961,-0.58 -2.832,-2.4 l -5,-11.34 -3.231,-7.42 -3.406,-6.78 -5.812,-11.71 c -0.723,-1.61 -0.938,-2.54 -0.723,-3.13 0,0 0.418,-1.13 1.641,-0.78"
         inkscape:connector-curvature="0" /><path
         id="path116"
         style="fill:#9a0150;fill-opacity:1;fill-rule:nonzero;stroke:none"
         d="m 714.914,1623.04 c 0.211,0.79 -0.238,2.04 -1.465,4.11 l -7.562,13.78 -1.141,2.12 c -0.672,1.13 -1.797,0.93 -2.918,0.57 -4.73,-1.32 -10.625,-3.28 -18.625,-7.95 -9.707,-5.76 -16.289,-13.72 -18.535,-22.38 -1.77,-6.91 -0.762,-13.86 2.969,-20.16 6.64,-11.21 17.519,-16.9 37.48,-19.51 l 8.758,-1.12 c 15.285,-1.91 20.969,-6.68 24.855,-13.19 4.168,-7.14 2.579,-18.24 -8.613,-24.86 -5.441,-3.2 -16.043,-7.18 -26.105,2.16 -2.071,1.94 -4.098,4.32 -5.047,5.91 -0.403,0.73 -1.36,2.33 -2.793,1.5 -1.379,-0.77 -0.449,-2.99 0.332,-4.55 l 0.324,-0.63 9.059,-16.79 c 1.699,-2.89 2.539,-3.35 5.265,-3 6.758,0.77 13.036,3.13 20.985,7.8 8.363,4.92 14.093,10.67 17.59,17.6 2.472,5 3.39,9.67 3.39,13.93 0,6.96 -2.492,12.62 -4.523,16.01 -7.266,12.31 -17.989,17.7 -40.969,20.66 l -5.234,0.59 c -15.016,1.74 -21.024,4.27 -24.684,10.45 -1.496,2.59 -2.219,5.16 -2.219,7.75 0,5.48 3.399,10.8 9.766,14.52 8.078,4.75 13.973,3.4 17.715,1.97 4.699,-1.77 7.695,-5.33 8.367,-6.5 0.656,-1.06 1.223,-1.66 1.82,-1.79 0,0 1.25,-0.25 1.758,1"
         inkscape:connector-curvature="0" /><path
         id="path118"
         style="fill:#9a0150;fill-opacity:1;fill-rule:nonzero;stroke:none"
         d="m 1147.15,1595.58 c -0.72,-0.51 -1.89,-0.43 -2.74,-0.29 l -16.27,3.05 -6.84,1.29 -7,0.96 -11.84,1.71 c -2.11,0.34 -3.05,1.08 -2.86,2.19 0.2,1.19 1.67,1.08 2.78,0.9 l 5.41,-0.28 c 3.04,0.07 4.29,2.49 5.43,6.59 1.74,6.1 3.67,17.64 6.12,32.26 l 4.55,27.12 c 3.65,21.96 4.31,25.89 4.8,30.67 0.54,5.04 -0.51,7.7 -3.53,8.95 -1.73,0.79 -3.8,1.24 -5.24,1.47 -1.27,0.23 -2.52,0.64 -2.26,2.12 0.17,1.14 1.7,1.12 3.97,0.75 l 10.94,-2.11 8.32,-1.59 7.18,-1.03 11.01,-1.58 c 1.62,-0.27 2.54,-0.62 2.91,-1.15 l 0.18,-0.73 c -0.26,-1.46 -1.53,-1.46 -2.84,-1.24 l -4.51,0.29 c -3.78,-0.06 -5.49,-1.94 -6.75,-7.44 -1.08,-4.75 -1.87,-9.3 -5.55,-31.43 l -4.38,-26.19 c -2.34,-14 -4.37,-26.03 -4.86,-32.62 -0.23,-4.18 0.47,-6.87 4.63,-8.12 l 7.44,-1.84 c 1.08,-0.19 1.84,-0.52 2.15,-0.97 0,0 0.37,-1.19 -0.35,-1.71"
         inkscape:connector-curvature="0" /><path
         id="path120"
         style="fill:#9a0150;fill-opacity:1;fill-rule:nonzero;stroke:none"
         d="m 1423.16,1560.45 c 1.28,-0.86 2.57,0.43 4.19,2.81 l 9.3,12.62 1.49,1.91 c 0.73,1.1 0.08,2.05 -0.73,2.95 -2.96,3.49 -7.37,8.21 -15.07,13.49 -9.27,6.42 -19.25,9.07 -28.06,7.45 -6.99,-1.29 -12.9,-5.11 -17.01,-11.16 -7.45,-10.75 -8.01,-22.98 -1.97,-42.2 l 2.65,-8.44 c 4.67,-14.67 2.76,-21.82 -1.52,-28.09 -4.71,-6.77 -15.45,-10 -26.14,-2.61 -5.23,3.56 -13.3,11.55 -9.04,24.57 0.89,2.73 2.18,5.56 3.19,7.03 0.48,0.7 1.58,2.29 0.2,3.24 -1.29,0.87 -2.84,-0.82 -3.94,-2.23 l -11.87,-15.85 c -1.07,-1.54 -1.54,-2.51 -1.54,-3.44 0,-0.78 0.33,-1.55 0.98,-2.6 3.55,-5.81 8.35,-10.52 15.94,-15.78 7.97,-5.49 15.61,-8.3 23.33,-8.54 14.8,-0.37 23.12,8.37 26.74,13.62 8.11,11.75 8.53,23.77 1.5,45.84 l -1.7,5.02 c -4.69,14.33 -4.91,20.87 -0.83,26.76 5.29,7.67 14.45,8.69 23.36,2.55 7.73,-5.35 8.96,-11.3 9.22,-15.28 0.39,-4.99 -1.65,-9.23 -2.39,-10.32 0,0 -1.86,-2.52 -0.28,-3.32"
         inkscape:connector-curvature="0" /><path
         id="path122"
         style="fill:#9a0150;fill-opacity:1;fill-rule:nonzero;stroke:none"
         d="m 1420.68,1445.5 c 0.9,0.88 2.02,-0.09 2.8,-0.89 l 4.25,-3.42 c 2.52,-1.76 5.71,0.21 8.73,2.6 5.02,3.84 13.43,12.09 23.25,21.62 0,0 44.15,42.99 44.41,43.26 -0.26,0.24 -15.96,15.53 -15.96,15.53 -6.01,5.8 -9.2,8.12 -13.2,7.4 -2.98,-0.56 -4.71,-1.4 -5.48,-1.83 0,0 -2.55,-1.31 -3.09,0.93 0,0.51 0.35,1.1 1.21,1.96 1.76,1.68 13.51,9.15 14.67,9.84 1.62,0.99 2.75,1.44 3.53,0.7 l 0.81,-1.64 c 0.4,-1.11 0.95,-2.56 2.42,-4.33 2.75,-3.48 6.56,-7.8 9.95,-11.3 l 41.66,-42.78 c 0,0 7.68,-6.81 7.78,-6.88 l 1.35,-0.94 2.07,-1.51 c 0.91,-0.91 0.04,-1.86 -1.45,-3.34 0,0 -12.83,-11.89 -12.83,-11.91 -1.02,-0.75 -2.11,-1.52 -2.95,-0.68 -0.35,0.37 -0.49,0.68 -0.49,1.06 0,0.67 0.55,1.44 1.5,2.5 l 1.06,1.28 c 0.8,0.88 1.52,2.22 1.52,4.22 0,3.03 -1.75,7.59 -7.87,14.16 0,0 -12.67,13.67 -12.67,13.94 l 0,0 c -0.02,-0.03 -44.29,-43.13 -44.29,-43.13 -9.91,-9.66 -18.41,-17.97 -22.58,-23.04 -1.61,-1.95 -3.06,-3.9 -3.06,-6.07 0,-1.15 0.39,-2.36 1.35,-3.6 l 4.92,-5.89 c 0.88,-0.9 1.17,-1.56 1.17,-2.07 0,-0.33 -0.16,-0.58 -0.37,-0.79 -0.76,-0.74 -1.97,-0.37 -3.34,1.01 l -11.42,12.19 -4.77,5.09 -4.96,4.87 -8.59,8.43 c 0,0 -2.4,2.38 -1.04,3.45"
         inkscape:connector-curvature="0" /><path
         id="path124"
         style="fill:#9a0150;fill-opacity:1;fill-rule:nonzero;stroke:none"
         d="m 1580.21,1430.43 c 1.01,0.65 2.15,-0.72 3.25,-2.37 l 6.09,-9.42 4.54,-7.05 4.24,-6 6.42,-8.98 c 0.89,-1.3 1.73,-2.92 0.76,-3.59 -1.25,-0.8 -2.15,0.15 -2.85,1.2 l -2.87,3.52 c -2.71,2.69 -5.25,2.65 -10.04,-0.22 -4.12,-2.41 -7.37,-4.63 -25.37,-16.82 l -23.29,-15.72 c -12.26,-8.27 -21.96,-14.85 -27,-18.95 -3.15,-2.69 -4.61,-5.04 -2.66,-8.94 l 3.75,-6.68 c 1.19,-1.8 0.84,-2.56 0.3,-2.91 -0.89,-0.61 -1.96,-0.05 -3.1,1.54 l -9.04,13.97 -3.75,5.8 -4.15,5.83 -6.87,9.65 c 0,0 -2.18,2.55 -0.37,3.58 1.03,0.71 1.97,-0.45 2.59,-1.38 l 3.55,-4.12 c 2.14,-2.1 4.7,-1.37 8.45,0.64 5.65,2.87 15.18,9.36 27.27,17.51 l 22.87,15.47 c 18.64,12.61 22.01,14.87 25.79,17.8 4.03,3.07 5.24,5.72 4.05,8.78 -0.48,1.41 -1.38,3.05 -2.51,4.79 0,0 -1.58,2.23 -0.05,3.07"
         inkscape:connector-curvature="0" /><path
         id="path126"
         style="fill:#9a0150;fill-opacity:1;fill-rule:nonzero;stroke:none"
         d="m 1543.04,1276.62 c 0,0 2.74,-4.69 2.76,-4.71 1.66,-2.39 4.84,-1.96 9.1,-0.59 6.06,1.88 16.87,6.65 29.65,12.29 0,0 56.09,24.71 56.41,24.84 -0.43,0.93 -9.53,20.14 -9.53,20.14 -3.62,7.55 -5.8,10.79 -9.79,11.51 -3.03,0.55 -4.93,0.37 -5.77,0.23 -0.99,-0.18 -2.06,-0.2 -2.55,0.88 -0.51,1.23 0.35,1.87 1.78,2.49 2.21,0.95 15.77,3.86 17.17,4.12 1.9,0.33 3.11,0.37 3.52,-0.63 l 0.21,-1.78 c 0,-1.14 0,-2.72 0.74,-4.93 1.42,-4.25 3.47,-9.64 5.45,-14.04 l 24.06,-54.65 c 0,0 4.84,-9.09 4.89,-9.14 l 0.91,-1.33 1.41,-2.16 0.06,-0.9 c -0.22,-0.63 -1,-1.03 -2.54,-1.7 0,0 -16.18,-6.63 -16.19,-6.64 -1.2,-0.38 -2.49,-0.72 -2.95,0.38 -0.15,0.25 -0.23,0.5 -0.23,0.73 0,0.83 0.83,1.4 2.35,2.22 l 1.49,0.8 c 1.55,0.84 3.5,2.78 3.5,7.22 0,2.93 -0.83,6.84 -3.03,12.21 0,0 -7.04,17.04 -7.04,17.48 l 0,0 c -0.08,-0.02 -56.56,-24.93 -56.56,-24.93 -12.61,-5.57 -23.54,-10.37 -29.17,-13.7 -2.84,-1.6 -5.34,-3.34 -5.34,-6.45 0,-0.61 0.08,-1.29 0.31,-2.01 l 2.56,-7.26 c 0,0 1.14,-3.32 -1.27,-2.95 -0.8,0.31 -1.38,1.32 -1.73,2.16 l -6.35,15.16 -2.78,6.61 -3.04,6.52 -5.04,10.69 c -0.58,1.34 -1.06,2.45 -0.48,2.91 0,0 1.74,1.72 3.05,-1.09"
         inkscape:connector-curvature="0" /><path
         id="path128"
         style="fill:#9a0150;fill-opacity:1;fill-rule:nonzero;stroke:none"
         d="m 1694.47,1164.36 c 1.58,0.19 1.29,1.6 0.86,3.72 l -2.28,10.92 -1.53,7.27 -1.31,7.99 -2.22,13.69 c -0.4,2.15 -0.92,3.41 -2.15,3.2 -1.34,-0.27 -1.26,-1.6 -1,-3 0.34,-1.94 0.68,-4.56 0.6,-5.8 -0.14,-5.14 -2.39,-6.64 -7.12,-7.82 -4.67,-1.15 -8.57,-1.88 -30.36,-5.87 l -22.64,-4.21 c -18.78,-3.45 -30.51,-9.97 -36.98,-20.53 -8.2,-13.23 -5.39,-28.43 -4.18,-34.92 1.57,-8.59 4.94,-19.65 16.45,-28.98 12.93,-10.47 30.41,-8.99 47.35,-5.84 l 16.45,2.99 c 22.14,4.1 26.12,4.81 30.88,5.41 5.57,0.72 7.88,-0.27 9.25,-3.81 l 1.26,-4.18 c 0.25,-1.32 0.57,-2.05 1.06,-2.39 0,0 1.11,-0.52 1.79,0.34 0.37,0.51 0.39,1.42 0.1,3.06 l -2.68,12.62 -0.89,4.16 c -0.06,0.32 -2.73,17.17 -2.73,17.17 -0.37,1.99 -0.88,3.23 -2.12,2.99 -1.32,-0.21 -1.26,-1.54 -1.01,-2.95 l 0.54,-5.41 c -0.11,-5.11 -2.39,-6.59 -7.11,-7.77 -4.68,-1.17 -8.6,-1.88 -31.38,-6.07 l -18.52,-3.44 c -15.92,-2.89 -28.85,-4.68 -38.24,1.8 -8.51,5.83 -11.02,15.13 -11.72,18.84 -0.94,5.18 -1.48,12.03 2.65,19.57 5.18,9.38 15.08,14.66 34.21,18.19 l 21.68,3.99 c 21.89,4.07 25.84,4.79 30.58,5.37 5.55,0.68 7.88,-0.26 9.22,-3.82 l 1.26,-4.2 c 0,0 0.76,-2.65 1.98,-2.28"
         inkscape:connector-curvature="0" /><path
         id="path130"
         style="fill:#9a0150;fill-opacity:1;fill-rule:nonzero;stroke:none"
         d="m 1692.55,1041.92 c 0.86,-0.28 2.65,-0.96 5.12,-2.76 2.97,-2.26 3.6,-5.77 3.6,-12.89 0,-0.55 0,-1.17 0,-1.77 0,0 -0.43,-21.3 -0.45,-22.3 -0.33,0.03 -62.02,2.86 -62.02,2.86 -13.62,0.66 -25.34,1.21 -31.55,2.23 -4.46,0.66 -7.46,1.72 -7.89,4.63 l -0.38,5.4 c 0,0.14 0.02,0.29 0,0.46 -0.15,2.84 -2.25,1.83 -2.25,1.83 -0.53,-0.45 -0.78,-1.35 -0.84,-2.76 l -0.3,-11.83 -0.15,-7.145 -0.49,-7.168 -1.07,-16.445 c -0.06,-1.25 0.15,-2.207 0.6,-2.703 0,0 0.89,-0.743 1.74,-0.129 0.41,0.363 0.66,1.125 0.7,2.218 l 0.95,7.606 c 0.88,4.601 4.4,5.137 8.3,5.391 6.51,0.429 18.41,-0.145 32.19,-0.731 0,0 61.7,-2.93 61.76,-2.93 l 0,0 c -0.2,-0.097 -1.5,-18.75 -1.5,-18.75 -1.02,-14.777 -6.13,-17.089 -9.08,-17.199 l -1.66,-0.078 c -2.21,-0.019 -3.2,-0.312 -3.28,-1.68 l 0,-0.066 c 0,-1.145 1.29,-1.406 2.49,-1.613 0.03,0 17.47,-1.25 17.47,-1.25 1.69,-0.078 2.61,-0.039 3.08,0.382 l 0.35,0.829 -0.31,2.472 -0.26,1.707 c -0.04,0.297 -0.27,10.371 -0.27,10.371 l 2.79,59.621 c 0.22,4.86 0.76,10.65 1.43,15.02 0.27,2.25 1.01,3.69 1.5,4.75 l 0.59,1.68 c 0.08,1.09 -1,1.57 -2.87,2.09 -1.39,0.41 -14.79,3.85 -17.2,3.97 -1.2,0.08 -1.91,-0.06 -2.32,-0.42 0,0 -1.43,-1.89 1.48,-2.9"
         inkscape:connector-curvature="0" /><path
         id="path132"
         style="fill:#9a0150;fill-opacity:1;fill-rule:nonzero;stroke:none"
         d="m 1586.34,917.523 c 0.29,-0.468 0.29,-1.199 0,-2.332 l -0.73,-5.363 c -0.13,-3.027 3.03,-4.551 6.89,-6.133 5.83,-2.265 17.15,-5.136 30.31,-8.457 l 26.3,-6.699 0.94,-0.254 c 21.57,-5.449 25.42,-6.445 30.13,-7.285 4.75,-0.957 7.44,-0.547 9.71,4.043 0.58,1.117 1.38,3.633 1.89,5.527 0.31,1.215 0.65,1.914 1.14,2.168 0,0 0.87,0.45 1.79,-0.41 0.33,-0.566 0.29,-1.504 -0.16,-3.223 l -3.16,-11.816 -0.28,-0.918 -2.33,-8.203 -0.47,-1.738 c -2.03,-7.969 -8.15,-32.246 -8.67,-34.746 l -0.75,-6.524 0.04,-0.957 -0.04,-1.641 c -0.23,-1.054 -1.35,-0.742 -1.75,-0.664 l -1.36,0.567 -7.83,3.07 -2.89,0.895 -6.6,2.23 c -0.47,0.25 -1.57,0.836 -1.35,1.988 0.01,0 0.01,0.079 0.02,0.176 0,0 0.14,1.094 1.68,0.899 l 0,0 c 0.47,0 0.92,0 0.92,0 1.15,-0.254 3.55,-0.664 5.41,-0.391 2.69,0.293 4.83,1.078 7.61,8.281 0.9,2.481 5.12,17.797 5.85,20.586 l -0.04,0.606 -1.06,0.547 -36.93,9.375 -1.32,0.039 c 0,0 -0.33,-0.508 -0.36,-0.586 -3.28,-12.813 -5.27,-21.172 -5.63,-23.34 -0.59,-3.613 -0.71,-5.781 0.52,-7.695 0.86,-1.211 1.36,-1.973 1.17,-2.696 -0.1,-0.488 -0.47,-1.172 -1.61,-0.84 l -1.27,0.489 c 0,0 -9.1,3.34 -9.14,3.34 0,0 -9.63,3.066 -9.67,3.066 -1.15,0.312 -2.89,0.723 -2.54,2.246 0,0 0.51,1.367 1.84,1.113 l 1.4,-0.254 4.03,-0.468 c 3.52,-0.039 5.88,2.011 7.6,6.562 1.02,2.754 4.9,17.539 5.7,20.625 l -0.02,0.488 -1.09,0.547 -11.55,2.969 -6.05,1.563 -16.6,4.179 c -9.74,2.188 -12.64,1.035 -16.5,-14.297 -0.94,-3.672 -2.5,-9.824 -1.75,-14.14 0.79,-4.082 3.2,-6.563 9.04,-9.16 0,0 3.37,-1.485 1.35,-3.106 -0.58,-0.371 -1.57,-0.137 -2.62,0.137 -3.39,0.879 -12.95,4.57 -15.77,6.035 -3.66,2.012 -3.28,3.496 -1.85,9.043 l 5.56,20.644 1.31,4.532 4.27,15.078 1.96,8.359 2.26,10.137 c 0.35,1.398 0.82,2.246 1.39,2.57 0,0 1.08,0.477 1.71,-0.383"
         inkscape:connector-curvature="0" /><path
         id="path134"
         style="fill:#9a0150;fill-opacity:1;fill-rule:nonzero;stroke:none"
         d="m 1642.05,779.574 c 0.51,0.156 1.19,0.039 2.25,-0.465 2.16,-1.097 13.17,-9.613 14.26,-10.492 1.51,-1.25 2.28,-2.168 1.83,-3.144 l -1.25,-1.309 c -0.88,-0.758 -2.06,-1.738 -3.22,-3.691 -2.4,-3.864 -5.21,-8.942 -7.28,-13.278 l -26.1,-53.656 c 0,0 -3.83,-9.609 -3.87,-9.648 l -0.39,-1.582 c 0,0 -0.69,-2.422 -0.69,-2.461 -0.57,-1.133 -1.76,-0.684 -3.63,0.234 0,0 -15.55,7.969 -15.55,8.008 -1.07,0.664 -2.15,1.445 -1.66,2.539 0.61,1.25 1.62,1.055 3.72,0.254 l 1.54,-0.625 c 2.72,-1.074 8.36,-0.934 15.17,12.324 0,0 8.53,16.504 8.75,16.543 l 0,0 c -0.06,0.059 -55.62,27.051 -55.7,27.09 -12.4,6.074 -23.06,11.328 -29.21,13.441 -3.64,1.305 -7.15,2.168 -9.72,-1.644 l -3.91,-6.68 c -0.89,-1.93 -1.76,-2.031 -2.32,-1.738 -1.61,0.898 -0.19,3.496 -0.19,3.496 l 7.47,14.769 3.29,6.266 2.88,6.465 5,10.879 c 0.6,1.269 1.21,1.972 1.86,2.207 0,0 0.97,0.136 1.67,-0.723 0.04,-0.156 0.08,-0.293 0.08,-0.449 0,-0.488 -0.18,-1.074 -0.57,-1.836 l -1.85,-5.078 c -0.08,-0.352 -0.11,-0.723 -0.11,-1.055 0,-2.305 2.28,-4.258 5.61,-6.289 5.4,-3.574 16.14,-8.75 28.55,-14.785 0,0 55.06,-26.738 55.39,-26.891 0.15,0.293 9.23,20.27 9.23,20.27 2.21,5.023 3.46,8.379 3.46,11.094 0,1.39 -0.34,2.578 -1,3.808 -1.55,2.637 -2.93,3.988 -3.59,4.473 -0.55,0.527 -1.12,1.133 -1.12,1.914 0,0 -0.11,1.055 0.92,1.445"
         inkscape:connector-curvature="0" /><path
         id="path136"
         style="fill:#9a0150;fill-opacity:1;fill-rule:nonzero;stroke:none"
         d="m 584.141,1411.45 c 0.781,-0.02 1.55,0.59 2.714,1.66 l 9.735,9.76 1.769,1.8 3.153,2.81 10.715,9.69 c 1.367,1.35 2.5,2.7 1.484,3.75 -0.852,0.87 -1.961,0.04 -2.969,-0.87 -1.582,-1.53 -3.769,-3.47 -6.328,-4.6 -3.25,-1.49 -7.773,1.08 -15.156,8.45 l -44.797,44.83 c 0.207,0.04 5.039,-0.34 5.039,-0.34 9.395,-0.72 28.949,-2.16 47.344,-2.57 l 28.215,-0.74 34.562,-0.81 c 2.352,-0.06 4.684,0 5.984,1.09 0.04,0.03 0.079,0.05 0.118,0.09 l 0.027,0 0,0.03 c 0.336,0.24 0.547,0.67 0.547,1.2 0,0.22 -0.039,0.43 -0.117,0.63 -0.282,0.83 -0.996,1.89 -2.215,3.16 l -64.258,70.16 c -5.773,6.27 -6.875,9.33 -4.738,12.9 l 2.922,3.41 c 1.398,1.33 1.738,2.37 1.035,3.08 -0.965,1.09 -2.364,-0.11 -3.672,-1.37 l -8.516,-8.54 -1.914,-1.98 -3.976,-3.54 -9.567,-8.65 c -1.367,-1.31 -2.23,-2.28 -2.246,-3.12 l 0.34,-0.81 0.91,-0.47 c 0.547,-0.02 1.188,0.32 1.988,1.1 1.563,1.48 4.133,3.94 6.407,4.84 3.742,1.43 6.73,-0.04 12.863,-6.3 l 47.566,-48.01 0.325,-0.35 -0.93,0.05 -0.586,0.04 0,0 c -2.977,0.16 -14.547,0.7 -14.547,0.7 l -32.285,1.41 c -32.434,0.76 -66.875,2.91 -67.219,2.94 l -2.109,0.12 c -2.61,0.22 -4.266,0.33 -5.293,-0.6 -1.387,-1.3 0.535,-3.67 2.078,-5.34 l 60.461,-65.65 c 8.894,-9.64 11.367,-13.17 9.434,-16.59 -1.184,-2.04 -3.243,-4.12 -4.348,-5.16 -0.867,-0.81 -1.25,-1.42 -1.266,-1.97 0,0 0.164,-1.42 1.317,-1.32"
         inkscape:connector-curvature="0" /><path
         id="path138"
         style="fill:#9a0150;fill-opacity:1;fill-rule:nonzero;stroke:none"
         d="m 562.723,1383.55 c -0.508,0.36 -1.395,0.41 -2.555,-1.39 l -4.836,-5.95 c -2.941,-3.2 -5.633,-2.69 -9.336,-0.74 -5.656,3.17 -15.293,9.82 -27.519,18.2 l -21.836,15.08 c -18.926,13.04 -22.313,15.41 -26.153,18.37 -4.433,3.44 -5.402,5.79 -3.859,9.27 l 2.18,3.95 c 0.722,1.05 1.296,2.21 0.078,3.05 -1.016,0.73 -2.137,-0.67 -3.028,-1.94 l -5.984,-9.19 -4.094,-6.22 -5,-6.93 -6.445,-8.92 c -0.977,-1.37 -1.406,-2.3 -1.465,-2.94 -0.019,-0.08 -0.039,-0.13 -0.039,-0.18 0,-0.04 0.02,-0.1 0.02,-0.14 0,-0.03 0,-0.04 0,-0.04 l 0.039,-0.02 c 0.078,-0.57 0.586,-0.99 1.23,-0.99 0.274,0 0.488,0.08 0.684,0.2 0.535,0.24 0.988,0.76 1.367,1.34 1.172,1.76 2.414,3.14 3.535,4.09 2.402,2.24 5.285,2.07 9.668,-0.57 4.012,-2.42 7.234,-4.65 25.105,-16.96 l 23.196,-15.99 c 11.679,-8.03 21.804,-14.98 26.621,-19.22 3.262,-2.79 4.883,-4.93 3.711,-7.71 l -2.61,-4.74 c -0.652,-0.96 -0.906,-1.67 -0.808,-2.2 0,0 0.156,-0.97 1.504,-0.93 0.703,0.1 1.426,0.73 2.226,1.86 l 6.504,9.97 3.867,5.94 4.161,5.74 9.539,13.36 c 1.164,1.62 1.281,2.89 0.332,3.49"
         inkscape:connector-curvature="0" /><path
         id="path140"
         style="fill:#9a0150;fill-opacity:1;fill-rule:nonzero;stroke:none"
         d="m 446.172,964.488 -0.684,12.266 -0.351,6.055 -0.039,4.648 -0.215,17.563 c -0.098,2.13 -0.645,3.15 -1.817,3.11 -0.89,-0.02 -1.355,-0.78 -1.316,-2.04 l -0.363,-7.344 c -0.422,-4.191 -3.125,-5.351 -7.938,-6.008 -6.328,-0.953 -18.312,-1.328 -32.219,-1.785 l -2.109,-0.07 -0.789,0.207 -0.266,0.789 -0.117,13.121 c -0.019,1.08 0.117,1.9 0.879,2.6 l 9.797,7.57 10.563,8.03 c 11.789,9.18 18.359,15.05 21.523,21.41 2.023,4.12 2.629,8.11 2.355,16.29 l -0.468,14.33 c -0.039,1.19 -0.207,1.96 -0.539,2.41 -0.059,0.09 -0.098,0.15 -0.153,0.22 -0.023,0 -0.023,0.02 -0.023,0.02 l 0,0.01 c -0.215,0.23 -0.528,0.39 -0.899,0.39 -0.175,0 -0.339,-0.04 -0.484,-0.1 -0.5,-0.14 -1.039,-0.6 -1,-1.97 l -0.32,-4.24 c -0.391,-2.46 -1.426,-8.61 -9.637,-17.08 -7.824,-7.98 -18.547,-17.02 -32.113,-28.51 l -6.453,-5.47 c -0.215,0.26 -0.469,0.47 -0.684,0.73 -0.633,0.72 -1.27,1.46 -1.883,2.13 -10.531,11.42 -20.238,16.39 -31.742,16.04 -10.887,-0.38 -18.125,-7.4 -20.457,-11.04 -5.449,-8.56 -5.899,-19 -5.594,-28.01 l 1.11,-21.264 0.07,-6.004 0.164,-14.629 c 0.051,-2.16 0.351,-3.515 1.613,-3.496 1.367,0.078 1.504,1.395 1.465,2.852 -0.078,1.933 0,4.578 0.254,5.808 0.898,5.078 3.387,6.203 8.242,6.633 4.785,0.477 8.918,0.594 31.758,1.348 l 26.687,0.859 c 13.762,0.41 25.715,0.781 32.122,0.262 4.089,-0.457 7.546,-1.055 8.242,-3.992 l 0.761,-5.352 c 0.059,-1.164 0.235,-1.894 0.665,-2.265 l 0,0 c 0.195,-0.188 0.468,-0.352 0.781,-0.352 0.234,0 0.441,0.117 0.625,0.242 0.734,0.363 1.054,1.348 0.996,3.078 z m -56.895,27.332 c -0.39,-0.996 -0.929,-1.285 -2.511,-1.336 l -45.782,-1.437 c -1.199,-0.059 -1.695,0.238 -1.98,1.133 -0.461,1.386 -0.711,3.898 -0.848,7.929 -0.168,5.661 2.028,11.521 5.926,15.711 4.727,5.04 11.719,7.77 20.754,8.01 13.906,0.47 20.195,-4.84 22.711,-8.06 1.953,-2.56 2.668,-4.47 2.844,-10.51 0.156,-4.311 -0.274,-8.615 -1.114,-11.44"
         inkscape:connector-curvature="0" /><path
         id="path142"
         style="fill:#9a0150;fill-opacity:1;fill-rule:nonzero;stroke:none"
         d="m 478.711,826.625 -3.918,14.102 -0.875,3.066 -3.508,15.605 c -0.371,1.407 -0.898,2.657 -2.316,2.266 -1.153,-0.312 -1.153,-1.152 -0.742,-2.656 l 0.558,-2.223 c 0.977,-3.949 0.059,-6.078 -2.918,-6.859 -1.621,-0.391 -5.258,-0.606 -9.406,-0.078 l -22.879,2.597 c -0.93,0.078 -1.211,0.196 -1.359,0.899 l -8.301,32.558 c -0.149,0.703 0,1.133 0.605,1.563 l 27.989,19.57 c 0.683,0.547 1.297,0.625 1.777,0.586 0.02,0 0.059,0.039 0.098,0.039 1.043,0 1.386,-0.664 2,-1.992 0.371,-0.664 0.859,-0.996 1.632,-0.82 1.082,0.273 0.762,1.836 0.293,4.218 l -0.117,0.684 -6.738,27.676 c -1.125,4.386 -1.375,6.133 -2.5,6.379 -1.953,0.261 -1.691,-2.317 -1.691,-2.317 l 0.949,-6.23 c 0.058,-3.504 -1.387,-8.34 -12.571,-16.766 L 383.797,881.16 354.109,859.398 c -2.89,-2.187 -4.218,-3.593 -3.847,-5.039 0.449,-1.64 2.492,-2.05 7.074,-2.754 l 101.09,-13.3 c 5.617,-0.743 10.363,-1.621 13.535,-4.844 2.062,-1.738 2.422,-10.957 2.422,-10.957 0.754,-8.125 -1.891,-16.699 -4.481,-24.981 l -0.468,-1.464 c -2.313,-7.676 -17.52,-48.36 -21.446,-56.403 -6.965,2.207 -37.117,12.438 -43.468,14.668 -7.625,2.656 -13.114,5.68 -17.352,9.414 -2.254,2.145 -4.461,5.211 -5.34,7.028 -0.48,0.976 -0.902,1.468 -1.398,1.601 l -1.055,-0.094 -0.684,-0.703 c -0.187,-0.609 -0.019,-1.351 0.528,-2.445 l 8.289,-15.547 6.543,-14.082 c 0.539,-1.074 0.996,-1.621 1.488,-1.754 l 1.035,0.094 c 1.012,0.547 0.856,1.504 0.574,2.617 -0.359,1.309 0.157,2.246 1.633,3.031 2.137,1.071 6.727,-0.039 12.489,-1.488 l 0.867,-0.195 c 3.918,-0.957 16.183,-4.785 27.004,-8.141 0,0 16.707,-5.137 16.746,-5.137 l 0,0 c 0,-0.039 0.09,-0.257 0.168,-0.394 -0.313,-0.156 -7.676,-3.981 -7.676,-3.981 -18.633,-9.261 -22.52,-11.195 -26.817,-13.011 -5.167,-2.246 -7.656,-1.973 -9.96,1.074 -0.145,0.199 -2.258,3.574 -2.258,3.574 -0.254,0.508 -1.012,1.996 -2.391,1.371 -1.144,-0.586 -0.773,-1.898 0.117,-3.734 l 4.883,-9.18 3.652,-6.933 2.938,-6.149 6.125,-12.914 c 0.781,-1.562 1.348,-2.301 1.961,-2.516 l 0.969,0.094 c 1.211,0.625 0.734,1.957 0.136,3.145 -0.867,1.761 -1.941,4.16 -2.207,5.433 -1.289,4.922 0.457,7.008 4.746,9.414 4.063,2.383 7.567,4.157 27.188,13.965 l 25.254,12.653 c 12.246,6.152 22.793,11.429 28.758,13.535 3.886,1.328 7.277,2.246 9.132,-0.137 l 2.93,-4.59 c 0.539,-0.976 1.035,-1.562 1.563,-1.715 3.183,-0.254 0.957,3.672 0.957,3.672 l -5.567,10.449 -3.351,6.286 -2.949,6.328 -6.387,13.304 c -0.828,1.735 -1.883,2.438 -2.832,1.95 -0.438,-0.215 -0.672,-0.606 -0.672,-1.133 0,-0.41 0.144,-0.879 0.371,-1.367 0,-0.036 2.746,-6.817 2.746,-6.817 0.184,-0.582 0.281,-1.168 0.281,-1.715 0,-2.406 -1.66,-4.574 -5.039,-6.605 -5.429,-3.219 -15.734,-8.395 -27.648,-14.313 0,0 -12.871,-6.449 -13.192,-6.605 l 0.012,0 c 0,0.199 -0.18,0.531 -0.18,0.531 0,-0.176 1.301,2.363 1.301,2.363 2.442,4.684 20.293,46.813 22.656,55.524 2.227,8.418 3.34,13.555 0.372,21.23 l -4.309,9.219 c -1.445,2.422 -2.957,6.797 -2.957,6.797 z M 422.91,853.91 c -0.098,-0.156 -0.351,-0.234 -0.644,-0.234 l -39.356,4.414 c -0.82,-0.02 -1.32,0.137 -1.375,0.371 -0.07,0.273 0.465,0.547 0.906,0.781 0.118,0.043 32.86,22.403 32.86,22.403 0.117,0.039 0.304,0.156 0.441,0.078 0.215,-0.078 0.313,-0.293 0.352,-0.508 l 6.855,-26.895 c 0.02,-0.097 0.02,-0.136 0.02,-0.215 0,-0.078 -0.02,-0.195 -0.059,-0.195"
         inkscape:connector-curvature="0" /><path
         id="path144"
         style="fill:#9a0150;fill-opacity:1;fill-rule:nonzero;stroke:none"
         d="m 632.293,452.559 -4.559,4.414 c -2.148,2.851 -3.847,7.5 -0.011,20.937 l 18.441,61.113 10.496,34.707 c 0.965,3.458 1.211,5.274 0.02,6.25 -1.34,1.016 -3.27,0.157 -7.285,-2.05 l -88.79,-50.137 c -7.746,-4.355 -12.714,-5.918 -18.32,-2.578 l -3.762,2.715 c -2.605,1.152 -2.839,-0.918 -2.839,-0.918 0.058,-0.645 0.566,-1.211 1.73,-2.168 l 11.57,-8.828 2.567,-1.895 12.179,-10.41 c 0.958,-0.801 1.719,-1.309 2.196,-1.016 2.23,1.114 -0.039,3.223 -0.039,3.223 l -1.746,1.406 c -3.164,2.5 -3.703,4.824 -1.805,7.207 1.074,1.289 3.875,3.653 7.508,5.723 l 19.863,11.719 c 0.742,0.468 1.086,0.488 1.59,0.097 l 26.223,-21.074 c 0.558,-0.43 0.691,-0.898 0.468,-1.601 l -10.613,-32.461 c -0.305,-1.016 -0.879,-1.465 -1.32,-1.68 l -0.051,0 c -0.203,-0.137 -0.457,-0.234 -0.75,-0.234 -0.293,-0.02 -0.566,0.039 -0.781,0.156 l -0.098,-0.02 c -1.164,0.782 -2.039,1.114 -2.715,0.254 -0.711,-0.898 0.488,-1.972 2.352,-3.555 l 0.461,-0.449 22,-18.105 c 3.586,-2.832 4.972,-3.711 5.832,-3.613 2.187,0.644 -0.012,2.871 -0.012,2.871 z m 1.602,104.179 c -0.059,-0.136 -12.801,-37.597 -12.801,-37.597 -0.059,-0.118 -0.129,-0.313 -0.293,-0.371 -0.215,-0.04 -0.41,0.078 -0.539,0.234 l -21.668,17.246 c -0.156,0.137 -0.223,0.234 -0.223,0.352 0,0.195 0.145,0.39 0.387,0.625 l 34.054,20.175 c 0.614,0.489 1.133,0.703 1.348,0.489 0.215,-0.137 -0.039,-0.703 -0.265,-1.153"
         inkscape:connector-curvature="0" /><path
         id="path146"
         style="fill:#9a0150;fill-opacity:1;fill-rule:nonzero;stroke:none"
         d="m 772.531,503.34 c 0.66,0.742 1.883,-0.156 3.68,-1.074 l 11.406,-6.153 4.59,-2.519 2.508,-1.133 10.863,-5.156 c 1.637,-0.879 3.203,-1.758 2.539,-3.125 -0.472,-0.899 -1.566,-0.918 -3.265,-0.039 l -4.188,1.718 c -4.102,0.801 -6.562,-1.328 -10.625,-8.828 l -44.902,-83.886 c 0,0 -2.149,-3.985 -4.102,-3.301 -1.562,0.801 -2.402,3.066 -3.117,5.332 l -10.645,32.676 -8.711,27.07 c -5.73,17.539 -10.878,36.465 -13.339,45.566 0,0 -1.278,4.59 -1.348,4.805 l 0,0 -27.41,-57.109 c -4.512,-9.375 -5.391,-14.473 -2.949,-17.09 1.894,-2.032 4.414,-3.477 6.425,-4.492 1.114,-0.567 1.707,-1.094 1.887,-1.622 0,0 0.164,-1.191 -0.879,-1.523 -0.656,-0.215 -1.621,0.02 -3.234,0.84 l -12.863,6.953 -3.516,2.031 -2.254,1.055 -12.453,5.957 c -1.383,0.723 -2.254,1.25 -2.481,1.992 0,0 -0.406,1.153 0.782,1.66 0.547,0.196 1.25,0 2.285,-0.507 1.347,-0.743 4.004,-1.973 6.32,-2.422 3.887,-0.684 6.406,2.812 12.508,14.375 l 41.926,78.769 c 1.16,2.305 2.207,3.555 3.164,3.867 0,0 1.953,1.094 3.535,-4.922 l 0.555,-1.972 c 0.078,-0.293 9.453,-33.516 19.484,-64.356 l 9.336,-30.82 c 0,0 3.242,-10.898 4.18,-13.965 l 0.273,-0.859 0.234,-0.938 0.215,0.606 c 0.645,1.347 29.512,60.82 29.512,60.82 2.305,4.766 3.379,7.871 3.27,10.176 -0.047,1.601 -0.614,2.851 -1.622,4.082 -1.589,1.816 -4.695,3.418 -6.667,4.394 0,0 -2.59,1.407 -0.907,3.067"
         inkscape:connector-curvature="0" /><path
         id="path148"
         style="fill:#9a0150;fill-opacity:1;fill-rule:nonzero;stroke:none"
         d="m 933.719,447.734 -4.383,0.723 c -4.16,-0.019 -6.164,-2.5 -8.594,-10.684 l -26.875,-91.289 c -0.488,-1.757 -0.957,-2.89 -1.543,-3.535 -0.312,-0.371 -0.762,-0.664 -1.269,-0.664 -0.157,0 -0.293,0.039 -0.41,0.098 l -0.106,-0.039 c -0.051,0.039 -0.07,0.097 -0.101,0.097 -0.059,0.02 -0.106,0.059 -0.184,0.079 -1.524,0.605 -2.832,2.597 -3.867,4.511 l -17.43,30.352 -13.684,24.16 c -9.082,15.879 -17.949,33.32 -22.187,41.66 0,0 -2.316,4.434 -2.453,4.649 l 0,0.019 -15.215,-61.465 c -2.527,-10.195 -2.352,-15.351 0.566,-17.344 2.297,-1.621 5.071,-2.46 7.227,-3.085 0,0 3.301,-0.86 1.68,-2.891 -0.524,-0.586 -1.668,-0.293 -3.348,0.176 l -13.957,4.179 -3.945,1.211 -2.371,0.567 -13.458,3.261 c -4.082,0.938 -2.929,2.598 -2.929,2.598 0.555,1.231 1.699,0.977 2.89,0.606 1.426,-0.372 4.297,-1.055 6.688,-1.036 3.898,0.118 5.656,4.141 9.297,16.661 l 25.012,85.683 c 0.625,2.207 1.628,5.02 3.496,4.531 1.328,-0.351 2.089,-1.894 3.25,-4.179 l 0.968,-1.875 c 2.207,-4.297 17.559,-33.496 32.219,-59.043 l 15.242,-27.988 c 0,0 6.582,-12.129 7.383,-13.75 l 0,0 0.059,-0.137 0.039,-0.039 0,0 0.351,-0.664 0.118,0.41 0.039,-0.02 c 0.214,0.801 16.55,65.664 16.55,65.664 0.891,3.633 1.399,6.289 1.399,8.321 0,2.812 -0.899,4.492 -2.707,5.898 -1.883,1.465 -5.301,2.402 -7.391,2.949 -1.476,0.43 -2.117,0.918 -2.14,1.758 -0.04,0.762 0.585,1.192 0.585,1.192 0.727,0.429 2.004,0.175 3.813,-0.313 l 12.379,-3.789 5.07,-1.523 2.762,-0.645 11.633,-2.871 c 1.562,-0.43 3.008,-0.918 3.008,-1.524 0,0 0.507,-2.382 -3.176,-1.621"
         inkscape:connector-curvature="0" /><path
         id="path150"
         style="fill:#9a0150;fill-opacity:1;fill-rule:nonzero;stroke:none"
         d="m 1216.25,1573.91 c -0.59,-1.37 -2.37,-0.87 -4.05,-0.24 l -13.41,5.66 -3.8,1.66 -2.5,0.87 -12.82,4.7 c -1.76,0.71 -3.2,1.39 -2.62,2.84 0.47,1.14 1.88,0.72 2.89,0.31 1.77,-0.67 4.33,-1.55 6.54,-1.76 3.93,-0.3 6.12,3.4 11.02,15.55 l 34.14,82.48 c 0.84,2.14 2.13,4.88 3.93,4.17 1.29,-0.5 1.9,-2.11 2.79,-4.56 l 0.76,-1.95 c 0.14,-0.3 12.74,-32.62 25.65,-62.18 l 12.38,-29.99 c 0,0 5.74,-13.97 5.74,-14.11 0,0 0.06,0 0.08,-0.02 l 0.25,-0.58 0.14,0.33 c 0,0 0.25,0.66 0.25,0.64 0.34,0.78 23.27,62.78 23.27,62.78 1.58,4.16 2.38,7.1 2.38,9.37 0,2.1 -0.72,3.58 -2.11,4.93 -1.76,1.61 -5.01,2.94 -7.06,3.72 -1.33,0.52 -1.96,1.09 -1.96,1.82 0,0.2 0.04,0.4 0.12,0.61 0.55,1.32 2.36,0.7 4.37,-0.1 l 11.87,-5.06 4.95,-2.09 2.53,-0.87 11.34,-4.11 c 1.53,-0.63 2.54,-1.16 2.83,-1.87 l -0.61,-1.61 c -0.61,-0.25 -1.46,-0.14 -2.72,0.36 l -4.25,1.18 c -4.16,0.41 -6.43,-1.86 -9.71,-9.74 l -36.54,-87.85 c -0.83,-2.17 -1.66,-3.34 -2.52,-3.71 l -1.24,0 c -1.63,0.63 -2.68,2.85 -3.66,5.03 l -13.91,31.84 -11.14,25.8 c -7.4,16.84 -14.3,35.12 -17.63,43.95 0,0 -1.74,4.53 -1.82,4.7 l 0,0.02 -21.8,-59.48 c -3.56,-9.81 -3.93,-14.97 -1.29,-17.33 2.08,-1.79 4.74,-2.99 6.86,-3.83 0,0 2.61,-0.87 2.09,-2.28"
         inkscape:connector-curvature="0" /></g></g></svg>